<svg xmlns="http://www.w3.org/2000/svg" width="27.558" height="33.593" viewBox="0 0 27.558 33.593">
  <g id="accom" transform="translate(-46)">
    <g id="Group_707" data-name="Group 707" transform="translate(61.747 29.656)">
      <g id="Group_706" data-name="Group 706">
        <path id="Path_1584" data-name="Path 1584" d="M286.656,452a.656.656,0,1,0,.656.656.656.656,0,0,0-.656-.656Z" transform="translate(-286 -452)" fill="#00264c"/>
      </g>
    </g>
    <g id="Group_709" data-name="Group 709" transform="translate(46)">
      <g id="Group_708" data-name="Group 708">
        <path id="Path_1585" data-name="Path 1585" d="M71.588,3.018H69.62V1.968A1.971,1.971,0,0,0,67.652,0H51.9a1.971,1.971,0,0,0-1.968,1.968v1.05H47.968A1.971,1.971,0,0,0,46,4.986c0,4.268,2,7.405,5.238,8.279a14.464,14.464,0,0,0,5.1,6.025,1.9,1.9,0,0,1,.82,1.584V24.49a2.628,2.628,0,0,0-1.968,2.542h-.656A1.971,1.971,0,0,0,52.561,29v3.937a.656.656,0,0,0,.656.656H66.339A.656.656,0,0,0,67,32.937V29a1.971,1.971,0,0,0-1.968-1.968h-.656A2.629,2.629,0,0,0,62.4,24.49V20.878a1.9,1.9,0,0,1,.821-1.588,14.464,14.464,0,0,0,5.1-6.026c3.24-.874,5.237-4.01,5.237-8.278a1.971,1.971,0,0,0-1.97-1.968ZM47.312,4.986a.657.657,0,0,1,.656-.656h1.968V7.263a14.411,14.411,0,0,0,.674,4.371C48.523,10.6,47.312,8.211,47.312,4.986ZM65.027,28.344a.657.657,0,0,1,.656.656v3.281H53.873V29a.657.657,0,0,1,.656-.656ZM68.308,7.263A13.192,13.192,0,0,1,62.492,18.2a3.209,3.209,0,0,0-1.4,2.677v4.185a.656.656,0,0,0,.656.656,1.314,1.314,0,0,1,1.312,1.312H56.5a1.313,1.313,0,0,1,1.261-1.311h.051a.659.659,0,0,0,.656-.659V20.875a3.207,3.207,0,0,0-1.4-2.673A13.2,13.2,0,0,1,51.249,7.263V1.968a.657.657,0,0,1,.656-.656H67.652a.657.657,0,0,1,.656.656Zm.639,4.37a14.42,14.42,0,0,0,.674-4.37V4.33h1.968a.657.657,0,0,1,.656.656c0,3.225-1.211,5.614-3.3,6.648Z" transform="translate(-46)" fill="#00264c"/>
      </g>
    </g>
    <g id="Group_711" data-name="Group 711" transform="translate(54.506 3.963)">
      <g id="Group_710" data-name="Group 710">
        <path id="Path_1586" data-name="Path 1586" d="M186.114,64.19a.656.656,0,0,0-.53-.447l-2.832-.411-1.266-2.566a.656.656,0,0,0-1.177,0l-1.267,2.566-2.831.411a.656.656,0,0,0-.364,1.119l2.049,2-.484,2.82a.656.656,0,0,0,.952.692L180.9,69.04l2.533,1.331a.656.656,0,0,0,.952-.692l-.484-2.82,2.049-2A.656.656,0,0,0,186.114,64.19Zm-3.378,1.971a.656.656,0,0,0-.189.581l.318,1.85-1.661-.873a.656.656,0,0,0-.611,0l-1.661.873.317-1.85a.656.656,0,0,0-.189-.581l-1.344-1.31,1.857-.27a.656.656,0,0,0,.494-.359l.831-1.684.831,1.684a.656.656,0,0,0,.494.359l1.857.27Z" transform="translate(-175.649 -60.4)" fill="#00264c"/>
      </g>
    </g>
    <g id="Group_713" data-name="Group 713" transform="translate(56.498 29.656)">
      <g id="Group_712" data-name="Group 712">
        <path id="Path_1587" data-name="Path 1587" d="M209.281,452h-2.624a.656.656,0,1,0,0,1.312h2.624a.656.656,0,0,0,0-1.312Z" transform="translate(-206 -452)" fill="#00264c"/>
      </g>
    </g>
    <g id="Group_715" data-name="Group 715" transform="translate(69.883 31.595)">
      <g id="Group_714" data-name="Group 714">
        <path id="Path_1588" data-name="Path 1588" d="M410.01,481.586h.366C410.189,481.549,410.064,481.545,410.01,481.586Z" transform="translate(-410.01 -481.557)" fill="#4003b2"/>
      </g>
    </g>
  </g>
</svg>
