<svg xmlns="http://www.w3.org/2000/svg" width="53.425" height="53.425" viewBox="0 0 53.425 53.425">
  <g id="best-price" transform="translate(-15.996 -16)">
    <path id="Path_1616" data-name="Path 1616" d="M58.945,54.027,60.2,52.768,50.149,42.712,75.081,17.781H89.849v3.562H87.915a2.671,2.671,0,1,0,0,1.781h1.934v9.426L72.3,50.1l1.259,1.259L91.369,33.547a.89.89,0,0,0,.261-.63V28.466H94.3a3.562,3.562,0,1,0,0-7.123H91.63V16.89a.89.89,0,0,0-.89-.89H74.712a.89.89,0,0,0-.63.261L48.261,42.083a.89.89,0,0,0,0,1.259ZM84.507,22.233a.891.891,0,0,1,.89-.89v1.781A.891.891,0,0,1,84.507,22.233Zm9.795.89a1.781,1.781,0,1,1,0,3.562H91.63V23.123Z" transform="translate(-28.442 0)" fill="#00264c"/>
    <path id="Path_1617" data-name="Path 1617" d="M232.1,90.446a2.838,2.838,0,0,0,1.816,1.847,2.762,2.762,0,0,0,1.139,2.158,2.932,2.932,0,0,0,2.613.47,2.97,2.97,0,0,0,4.626,0,2.932,2.932,0,0,0,2.613-.47,2.762,2.762,0,0,0,1.139-2.158,2.838,2.838,0,0,0,1.816-1.847,2.724,2.724,0,0,0-.37-2.432,2.724,2.724,0,0,0,.37-2.432,2.838,2.838,0,0,0-1.816-1.847,2.762,2.762,0,0,0-1.139-2.158,2.932,2.932,0,0,0-2.613-.47,2.97,2.97,0,0,0-4.626,0,2.932,2.932,0,0,0-2.613.47,2.762,2.762,0,0,0-1.139,2.158,2.838,2.838,0,0,0-1.816,1.847,2.723,2.723,0,0,0,.37,2.432A2.723,2.723,0,0,0,232.1,90.446Zm2.128-3.175a.983.983,0,0,1-.43-1.154,1.079,1.079,0,0,1,1.108-.755.89.89,0,0,0,.859-1.2A.987.987,0,0,1,236.121,83a1.136,1.136,0,0,1,1.4,0,.89.89,0,0,0,1.382-.455,1.144,1.144,0,0,1,2.156,0A.89.89,0,0,0,242.44,83a1.135,1.135,0,0,1,1.4,0,.987.987,0,0,1,.358,1.162.89.89,0,0,0,.859,1.2,1.081,1.081,0,0,1,1.108.755.983.983,0,0,1-.43,1.154.89.89,0,0,0,0,1.485.983.983,0,0,1,.43,1.154,1.08,1.08,0,0,1-1.108.755.89.89,0,0,0-.859,1.2.987.987,0,0,1-.358,1.162,1.136,1.136,0,0,1-1.4,0,.89.89,0,0,0-1.382.455,1.144,1.144,0,0,1-2.156,0,.89.89,0,0,0-1.382-.455,1.136,1.136,0,0,1-1.4,0,.987.987,0,0,1-.358-1.162.89.89,0,0,0-.859-1.2,1.078,1.078,0,0,1-1.108-.755.983.983,0,0,1,.43-1.154.89.89,0,0,0,0-1.485Z" transform="translate(-191.929 -56.877)" fill="#00264c"/>
    <rect id="Rectangle_122" data-name="Rectangle 122" width="7.555" height="1.781" transform="translate(24.271 42.973) rotate(-45)" fill="#00264c"/>
    <rect id="Rectangle_123" data-name="Rectangle 123" width="7.555" height="1.781" transform="translate(26.942 45.644) rotate(-45)" fill="#00264c"/>
    <rect id="Rectangle_124" data-name="Rectangle 124" width="7.555" height="1.781" transform="translate(29.613 48.316) rotate(-45)" fill="#00264c"/>
    <rect id="Rectangle_125" data-name="Rectangle 125" width="7.555" height="1.781" transform="translate(32.284 50.987) rotate(-45)" fill="#00264c"/>
    <rect id="Rectangle_126" data-name="Rectangle 126" width="3.778" height="1.781" transform="translate(37.627 50.987) rotate(-45)" fill="#00264c"/>
    <rect id="Rectangle_127" data-name="Rectangle 127" width="1.781" height="3.069" transform="translate(34.956 34.438) rotate(-45)" fill="#00264c"/>
    <rect id="Rectangle_128" data-name="Rectangle 128" width="1.781" height="7.87" transform="translate(38.295 37.777) rotate(-45)" fill="#00264c"/>
    <path id="Path_1618" data-name="Path 1618" d="M96.675,22.207a5.219,5.219,0,0,1,3.8,3.8.89.89,0,0,0,1.728,0,5.219,5.219,0,0,1,3.8-3.8.89.89,0,0,0,0-1.728,5.219,5.219,0,0,1-3.8-3.8.89.89,0,0,0-1.728,0,5.219,5.219,0,0,1-3.8,3.8.89.89,0,0,0,0,1.728Zm4.668-3.07a6.989,6.989,0,0,0,2.206,2.206,6.989,6.989,0,0,0-2.206,2.206,6.988,6.988,0,0,0-2.206-2.206A6.988,6.988,0,0,0,101.343,19.137Z" transform="translate(-71.101 -0.001)" fill="#00264c"/>
    <rect id="Rectangle_129" data-name="Rectangle 129" width="9.497" height="1.781" transform="translate(51.874 47.425) rotate(-45)" fill="#00264c"/>
    <rect id="Rectangle_130" data-name="Rectangle 130" width="2.518" height="1.781" transform="translate(59.887 39.411) rotate(-45)" fill="#00264c"/>
    <path id="Path_1619" data-name="Path 1619" d="M68.53,328.89H60.517a.89.89,0,0,0-.89.89v.844a13.966,13.966,0,0,0-15-.831l-1.56.877H35.585a4.45,4.45,0,0,0-3.674,6.963l-9.5-4.718a4.2,4.2,0,0,0-1.826-.436l-.383,0a4.177,4.177,0,0,0-1.9,7.912l10.926,5.463a8.054,8.054,0,0,0,3.584.846H68.53a.89.89,0,0,0,.89-.89V329.781A.89.89,0,0,0,68.53,328.89Zm-38.5,15.369L19.1,338.8a2.4,2.4,0,0,1,1.071-4.539h.019l.383,0a2.413,2.413,0,0,1,1.048.25l10.006,4.971a.892.892,0,0,0,.4.093H43.6a.89.89,0,1,0,0-1.781H35.585a2.671,2.671,0,1,1,0-5.342H43.3a.891.891,0,0,0,.437-.114l1.763-.992a12.188,12.188,0,0,1,13.589,1.106l.535.428v12.038H32.815A6.266,6.266,0,0,1,30.027,344.26Zm37.613.658H61.407V330.671H67.64Z" transform="translate(0 -277.274)" fill="#4003b2"/>
    <path id="Path_1620" data-name="Path 1620" d="M441.336,434.671A1.336,1.336,0,1,0,440,433.336,1.336,1.336,0,0,0,441.336,434.671Z" transform="translate(-376.812 -369.699)" fill="#4003b2"/>
    <rect id="Rectangle_131" data-name="Rectangle 131" width="1.781" height="10.074" transform="translate(33.175 38) rotate(-45)" fill="#00264c"/>
  </g>
</svg>
