<svg xmlns="http://www.w3.org/2000/svg" width="16.16" height="16.159" viewBox="0 0 16.16 16.159">
  <g id="call-us" transform="translate(0)">
    <path id="Path_119" data-name="Path 119" d="M9.55,12.067A13.128,13.128,0,0,1,6.437,9.725,13.077,13.077,0,0,1,4.092,6.607L4.926,4.37,2.117,0,1.191.927h0c-.006.007-.013.01-.021.018C-1.164,3.282.094,8.062,4.1,12.065s8.782,5.259,11.118,2.926l.018-.021.926-.927-4.372-2.81Z" transform="translate(-0.002)" fill="#336799"/>
    <path id="Path_120" data-name="Path 120" d="M17.593,8.411h1.294A8.42,8.42,0,0,0,10.477,0V1.294a7.125,7.125,0,0,1,7.116,7.117Z" transform="translate(-2.732)" fill="#336799"/>
    <path id="Path_121" data-name="Path 121" d="M15,9.323h1.3A5.828,5.828,0,0,0,10.476,3.5V4.794A4.534,4.534,0,0,1,15,9.323Z" transform="translate(-2.731 -0.912)" fill="#336799"/>
    <path id="Path_122" data-name="Path 122" d="M12.417,10.235h1.294A3.238,3.238,0,0,0,10.477,7V8.294A1.942,1.942,0,0,1,12.417,10.235Z" transform="translate(-2.732 -1.824)" fill="#336799"/>
  </g>
</svg>
