<svg xmlns="http://www.w3.org/2000/svg" width="51.007" height="41.333" viewBox="0 0 51.007 41.333">
  <g id="cashback" transform="translate(-3 -8)">
    <path id="Path_1796" data-name="Path 1796" d="M11.879,19a.879.879,0,0,0,0,1.759h8.794a.879.879,0,0,0,0-1.759Z" transform="translate(-0.965 -1.326)" fill="#336799"/>
    <path id="Path_1797" data-name="Path 1797" d="M17.7,15.915,19.2,9.19A4.658,4.658,0,0,0,16.651,8,4.652,4.652,0,0,0,14.1,9.19l1.5,6.725Z" transform="translate(-1.339)" fill="#336799"/>
    <path id="Path_1798" data-name="Path 1798" d="M57.879,26.759h1.759a.879.879,0,0,0,0-1.759H57.879a.879.879,0,0,0,0,1.759Z" transform="translate(-6.51 -2.05)" fill="#336799"/>
    <path id="Path_1799" data-name="Path 1799" d="M13.185,16.309l-1.12-5.042-.325.055a3.261,3.261,0,0,0-2.7,2.751l3.727,2.236Z" transform="translate(-0.728 -0.394)" fill="#336799"/>
    <path id="Path_1800" data-name="Path 1800" d="M42.429,9H39v3.429A4.411,4.411,0,0,0,42.429,9Z" transform="translate(-4.34 -0.121)" fill="#f75a5e"/>
    <path id="Path_1801" data-name="Path 1801" d="M46.035,17.794a1.761,1.761,0,0,1,1.759,1.759c0,.018,0,.033-.005.05a9.547,9.547,0,0,1,5.871,2.705,2.632,2.632,0,0,1,1.17-.835V14.206A6.16,6.16,0,0,1,49.624,9H44.206A6.16,6.16,0,0,1,39,14.206v3.6c.031,0,.061-.008.091-.008Z" transform="translate(-4.34 -0.121)" fill="#f75a5e"/>
    <path id="Path_1802" data-name="Path 1802" d="M56.53,12.429V9H53.1A4.411,4.411,0,0,0,56.53,12.429Z" transform="translate(-6.04 -0.121)" fill="#f75a5e"/>
    <path id="Path_1803" data-name="Path 1803" d="M24.393,14.072a3.26,3.26,0,0,0-2.7-2.751l-.325-.055-1.12,5.042h.419Z" transform="translate(-2.079 -0.394)" fill="#336799"/>
    <path id="Path_1804" data-name="Path 1804" d="M53.108,26a7.829,7.829,0,0,0-5.814-2.98,3.508,3.508,0,0,1-3.017,1.738H40.35l-.034.052A5.81,5.81,0,0,1,39,26.2v4.714a7.924,7.924,0,0,0,7.915,7.915,7.844,7.844,0,0,0,6.193-3,2.62,2.62,0,0,1,.65-1.4,2.6,2.6,0,0,1,0-3.518,2.6,2.6,0,0,1,0-3.518A2.608,2.608,0,0,1,53.108,26Zm-6.193,4.035a2.632,2.632,0,0,1,.879,5.115v1.921H46.035V35.153a2.635,2.635,0,0,1-1.759-2.476h1.759a.879.879,0,1,0,.879-.879,2.632,2.632,0,0,1-.879-5.115V24.762h1.759v1.921a2.635,2.635,0,0,1,1.759,2.476H47.794a.879.879,0,1,0-.879.879Z" transform="translate(-4.34 -1.811)" fill="#f75a5e"/>
    <path id="Path_1805" data-name="Path 1805" d="M59.638,37H57.879a.879.879,0,1,0,0,1.759h1.759a.879.879,0,1,0,0-1.759Z" transform="translate(-6.51 -3.496)" fill="#336799"/>
    <path id="Path_1806" data-name="Path 1806" d="M59.638,33H57.879a.879.879,0,1,0,0,1.759h1.759a.879.879,0,1,0,0-1.759Z" transform="translate(-6.51 -3.014)" fill="#336799"/>
    <path id="Path_1807" data-name="Path 1807" d="M46.915,42.434A9.665,9.665,0,0,1,39,38.305v9.476a6.16,6.16,0,0,1,5.206,5.206h5.417a6.16,6.16,0,0,1,5.206-5.206V40.513a2.632,2.632,0,0,1-1.17-.835A9.574,9.574,0,0,1,46.915,42.434Z" transform="translate(-4.34 -3.654)" fill="#f75a5e"/>
    <path id="Path_1808" data-name="Path 1808" d="M59.638,29H57.879a.879.879,0,1,0,0,1.759h1.759a.879.879,0,1,0,0-1.759Z" transform="translate(-6.51 -2.532)" fill="#336799"/>
    <path id="Path_1809" data-name="Path 1809" d="M39,51.1V54.53h3.429A4.411,4.411,0,0,0,39,51.1Z" transform="translate(-4.34 -5.196)" fill="#f75a5e"/>
    <path id="Path_1810" data-name="Path 1810" d="M53.1,54.53H56.53V51.1A4.411,4.411,0,0,0,53.1,54.53Z" transform="translate(-6.04 -5.196)" fill="#f75a5e"/>
    <path id="Path_1811" data-name="Path 1811" d="M42.639,22.759A1.761,1.761,0,0,0,44.4,21H37.453a4.41,4.41,0,0,0-2.746.964l-3.192,2.554h-6.1l2.549,2.549a13.971,13.971,0,0,1,3.852,7.189L33.9,35.924a4.133,4.133,0,0,0,1.7.8v-9.85a5.8,5.8,0,0,1-1.759.283V25.4a4.043,4.043,0,0,0,3.37-1.8l.557-.835Z" transform="translate(-2.702 -1.567)" fill="#336799"/>
    <path id="Path_1812" data-name="Path 1812" d="M18.466,23H12.158L6.607,28.552A12.231,12.231,0,0,0,3,37.258v.692a12.312,12.312,0,1,0,24.624,0v-.692a12.229,12.229,0,0,0-3.607-8.706ZM15.312,48.5V46.745a8.813,8.813,0,0,0,1.6-.146l.319,1.73a10.587,10.587,0,0,1-1.918.175ZM25.865,37.95a10.634,10.634,0,0,1-6.715,9.83l-.641-1.638a8.864,8.864,0,0,0,5.6-8.193Z" transform="translate(0 -1.808)" fill="#336799"/>
  </g>
</svg>
