<svg id="classroom" xmlns="http://www.w3.org/2000/svg" width="39.421" height="39.421" viewBox="0 0 39.421 39.421">
  <g id="_047---Student-At-Desk" data-name="047---Student-At-Desk">
    <path id="Rectangle-path" d="M11,38H35.967V48.512H11Z" transform="translate(-3.773 -13.033)" fill="#ebe1ff"/>
    <rect id="Rectangle-path-2" data-name="Rectangle-path" width="38" height="3" rx="1.5" transform="translate(1 22.347)" fill="#e8edfc"/>
    <path id="Shape" d="M55.971,34H54a1.314,1.314,0,0,1,0,2.628h1.971a1.314,1.314,0,0,0,0-2.628Z" transform="translate(-18.521 -11.661)" fill="#cad9fc"/>
    <g id="Group_728" data-name="Group 728" transform="translate(4.599 11.544)">
      <path id="Rectangle-path-3" data-name="Rectangle-path" d="M11,43H35.967v2.628H11Z" transform="translate(-8.372 -26.292)" fill="#e8edfc"/>
      <path id="Shape-2" data-name="Shape" d="M9.628,38V51.141a.657.657,0,0,1-.657.657H7.657A.657.657,0,0,1,7,51.141V38Z" transform="translate(-7 -24.577)" fill="#e8edfc"/>
      <path id="Shape-3" data-name="Shape" d="M51.628,38V51.141a.657.657,0,0,1-.657.657H49.657A.657.657,0,0,1,49,51.141V38Z" transform="translate(-21.405 -24.577)" fill="#e8edfc"/>
      <path id="Shape-4" data-name="Shape" d="M31.256,17.57v2.911a2.847,2.847,0,0,1-2.628,1.314A2.847,2.847,0,0,1,26,20.481V17.57a4.521,4.521,0,0,0,2.628,1.6A4.521,4.521,0,0,0,31.256,17.57Z" transform="translate(-13.517 -17.57)" fill="#e8edfc"/>
    </g>
    <path id="Shape-5" data-name="Shape" d="M42.314,5a1.314,1.314,0,0,1,1.314,1.314V7.628a.657.657,0,0,1-.657.657H41.657A.657.657,0,0,1,41,7.628V6.314A1.314,1.314,0,0,1,42.314,5Z" transform="translate(-14.062 -1.715)" fill="#336799"/>
    <path id="Shape-6" data-name="Shape" d="M32.114,8v2.457a6.382,6.382,0,0,1-1.971,3.83A6.767,6.767,0,0,1,28.5,15.581a2.223,2.223,0,0,0,.986.3,4.521,4.521,0,0,0,2.628-1.6,6.382,6.382,0,0,0,1.971-3.83V8Z" transform="translate(-9.775 -2.744)" fill="#336799"/>
    <path id="Rectangle-path-4" data-name="Rectangle-path" d="M23,1h9.2V5.6H23Z" transform="translate(-7.889 -0.343)" fill="#ebe1ff"/>
    <path id="Rectangle-path-5" data-name="Rectangle-path" d="M34,1h1.971V5.6H34Z" transform="translate(-11.661 -0.343)" fill="#ebe1ff"/>
    <path id="Shape-7" data-name="Shape" d="M32.2,8v2.457a6.382,6.382,0,0,1-1.971,3.83,4.521,4.521,0,0,1-2.628,1.6,4.521,4.521,0,0,1-2.628-1.6A6.382,6.382,0,0,1,23,10.457V8Z" transform="translate(-7.889 -2.744)" fill="#ebe1ff"/>
    <path id="Shape-8" data-name="Shape" d="M33.769,25.942v3.942H18V25.942A3.942,3.942,0,0,1,21.942,22h1.314a2.847,2.847,0,0,0,2.628,1.314A2.847,2.847,0,0,0,28.512,22h1.314A3.942,3.942,0,0,1,33.769,25.942Z" transform="translate(-6.174 -7.545)" fill="#ebe1ff"/>
    <path id="Shape-9" data-name="Shape" d="M35.3,22H33.984s-.011.021-.031.055a3.942,3.942,0,0,1,3.316,3.888v3.942H39.24V25.942A3.942,3.942,0,0,0,35.3,22Z" transform="translate(-11.645 -7.545)" fill="#336799"/>
    <path id="Shape-10" data-name="Shape" d="M2.314,36.628H4.285a1.314,1.314,0,1,1,0-2.628H2.314a1.314,1.314,0,1,0,0,2.628Z" transform="translate(-0.343 -11.661)" fill="#336799"/>
    <path id="Shape-11" data-name="Shape" d="M7.657,51.8H8.971a.642.642,0,0,0,.329-.1.647.647,0,0,1-.329-.556V38H7V51.141a.657.657,0,0,0,.657.659Z" transform="translate(-2.401 -13.033)" fill="#336799"/>
    <path id="Shape-12" data-name="Shape" d="M17.256,25.711l1.242.43a3.463,3.463,0,0,0-.184,1.074v3.942H17V27.215a4.787,4.787,0,0,1,.256-1.5Z" transform="translate(-5.831 -8.818)" fill="#336799"/>
    <path id="Shape-13" data-name="Shape" d="M17.675,30.314A.657.657,0,0,1,17.669,29h.007a.657.657,0,1,1,0,1.314Z" transform="translate(-5.836 -9.946)" fill="#336799"/>
    <path id="Shape-14" data-name="Shape" d="M37.45,21.682h-9.2V18.4a4.605,4.605,0,0,0-4.6-4.6H23v-2a6.831,6.831,0,0,0,1.971-4.08V1.32H27.6V2.749A1.971,1.971,0,0,0,26.281,4.6V5.913A1.314,1.314,0,0,0,27.6,7.227h1.314a1.314,1.314,0,0,0,1.314-1.314V4.6a1.971,1.971,0,0,0-1.314-1.85V1.314a.657.657,0,0,0,0-1.314h-18.4a.657.657,0,0,0,0,1.314h3.942v6.41a6.83,6.83,0,0,0,1.97,4.076v2h-.657a4.618,4.618,0,0,0-4.343,3.1.62.62,0,0,0,.46.85.723.723,0,0,0,.783-.42,3.3,3.3,0,0,1,3.1-2.211h.97a3.634,3.634,0,0,0,2.972,1.314,3.634,3.634,0,0,0,2.972-1.314h.97A3.289,3.289,0,0,1,26.938,18.4v3.285H1.971a1.971,1.971,0,0,0,0,3.942H3.942v12.48a1.314,1.314,0,0,0,1.314,1.314H6.57a1.314,1.314,0,0,0,1.314-1.314V36.136H31.537v1.971a1.314,1.314,0,0,0,1.314,1.314h1.314a1.314,1.314,0,0,0,1.314-1.314V25.624H37.45a1.971,1.971,0,1,0,0-3.942Zm-9.2-17.74a.657.657,0,0,1,.657.657V5.913H27.6V4.6a.657.657,0,0,1,.652-.658ZM15.769,1.314h7.884V4.6H15.769Zm5.913,12.95a2.338,2.338,0,0,1-1.971.848,2.341,2.341,0,0,1-1.971-.846V12.98a3.666,3.666,0,0,0,1.971.817,3.666,3.666,0,0,0,1.971-.817Zm-1.971-1.781c-1.155,0-3.917-2.825-3.942-4.769v-1.8h7.884V7.706c-.026,1.952-2.787,4.777-3.942,4.777ZM6.57,38.107H5.256V25.624H6.57Zm24.967-3.285H7.884V31.537H31.537Zm0-4.6H7.884V28.909H31.537Zm0-2.628H7.884v-1.97H31.537Zm2.628,10.512H32.851V25.624h1.314Zm3.285-13.8H1.971a.657.657,0,1,1,0-1.314H37.45a.657.657,0,1,1,0,1.314Z" fill="#336799"/>
  </g>
</svg>
