<svg xmlns="http://www.w3.org/2000/svg" width="32.634" height="39.115" viewBox="0 0 32.634 39.115">
  <g id="communication" transform="translate(-12.107 -4.958)">
    <path id="Path_1550" data-name="Path 1550" d="M37.769,38.227A26.5,26.5,0,0,0,38.386,33H28.02a26.5,26.5,0,0,0,.616,5.227,13.885,13.885,0,0,1,9.133,0Z" transform="translate(-8.51 -7.741)" fill="#00264c"/>
    <path id="Path_1551" data-name="Path 1551" d="M37.769,23.96a13.885,13.885,0,0,1-9.133,0,26.5,26.5,0,0,0-.616,5.227H38.386a26.5,26.5,0,0,0-.617-5.227Z" transform="translate(-8.51 -5.414)" fill="#00264c"/>
    <path id="Path_1553" data-name="Path 1553" d="M29.37,20.213a12.372,12.372,0,0,0,8.361,0C36.721,16.945,35.1,15,33.55,15s-3.171,1.945-4.18,5.213Z" transform="translate(-8.857 -3.107)" fill="#00264c"/>
    <path id="Path_1554" data-name="Path 1554" d="M26.639,42.74a12.263,12.263,0,0,0-2.569,1.686A12.634,12.634,0,0,0,28.74,46.9a12.963,12.963,0,0,1-2.1-4.158Z" transform="translate(-7.493 -10.249)" fill="#00264c"/>
    <path id="Path_1556" data-name="Path 1556" d="M43.73,28.266h5.918a12.581,12.581,0,0,0-3.393-7.886,14.275,14.275,0,0,1-3.245,2.1A28.056,28.056,0,0,1,43.73,28.266Z" transform="translate(-12.369 -4.492)" fill="#00264c"/>
    <path id="Path_1557" data-name="Path 1557" d="M21.443,40.886a14.275,14.275,0,0,1,3.245-2.1A28.056,28.056,0,0,1,23.968,33H18.05A12.581,12.581,0,0,0,21.443,40.886Z" transform="translate(-5.943 -7.741)" fill="#00264c"/>
    <path id="Path_1558" data-name="Path 1558" d="M18.05,28.266h5.918a28.056,28.056,0,0,1,.72-5.784,14.275,14.275,0,0,1-3.245-2.1,12.581,12.581,0,0,0-3.393,7.884Z" transform="translate(-5.943 -4.492)" fill="#00264c"/>
    <path id="Path_1559" data-name="Path 1559" d="M28.74,15.66a12.634,12.634,0,0,0-4.67,2.473,12.264,12.264,0,0,0,2.569,1.686,12.963,12.963,0,0,1,2.1-4.158Z" transform="translate(-7.493 -3.277)" fill="#00264c"/>
    <path id="Path_1560" data-name="Path 1560" d="M44.31,18.133a12.634,12.634,0,0,0-4.67-2.473,12.963,12.963,0,0,1,2.1,4.158,12.264,12.264,0,0,0,2.57-1.685Z" transform="translate(-11.501 -3.277)" fill="#00264c"/>
    <path id="Path_1561" data-name="Path 1561" d="M43.73,33a28.056,28.056,0,0,1-.72,5.784,14.275,14.275,0,0,1,3.245,2.1A12.581,12.581,0,0,0,49.648,33Z" transform="translate(-12.369 -7.741)" fill="#00264c"/>
    <path id="Path_1562" data-name="Path 1562" d="M39.64,46.9a12.634,12.634,0,0,0,4.67-2.473,12.264,12.264,0,0,0-2.569-1.686,12.963,12.963,0,0,1-2.1,4.158Z" transform="translate(-11.501 -10.249)" fill="#00264c"/>
    <path id="Path_1563" data-name="Path 1563" d="M33.55,41a12.561,12.561,0,0,0-4.18.728c1.01,3.267,2.63,5.212,4.18,5.212s3.171-1.945,4.18-5.213A12.562,12.562,0,0,0,33.55,41Z" transform="translate(-8.857 -9.801)" fill="#00264c"/>
    <path id="Path_1564" data-name="Path 1564" d="M0,0H2.97V1.485H0Z" transform="translate(28.402 7.827) rotate(-74.991)" fill="#42139b"/>
    <path id="Path_1565" data-name="Path 1565" d="M0,0H2.97V1.485H0Z" transform="matrix(0.5, -0.866, 0.866, 0.5, 32.592, 9.358)" fill="#42139b"/>
    <path id="Path_1566" data-name="Path 1566" d="M0,0H2.97V1.485H0Z" transform="translate(36.24 11.918) rotate(-45)" fill="#42139b"/>
    <path id="Path_1567" data-name="Path 1567" d="M0,0H2.97V1.485H0Z" transform="matrix(0.866, -0.5, 0.5, 0.866, 39.111, 15.329)" fill="#42139b"/>
    <path id="Path_1568" data-name="Path 1568" d="M0,0H2.97V1.485H0Z" transform="translate(41.004 19.372) rotate(-15.009)" fill="#42139b"/>
    <path id="Path_1569" data-name="Path 1569" d="M58,31h2.97v1.485H58Z" transform="translate(-16.229 -7.226)" fill="#42139b"/>
    <path id="Path_1570" data-name="Path 1570" d="M0,0H1.485V2.97H0Z" transform="translate(41.004 29.652) rotate(-74.991)" fill="#42139b"/>
    <path id="Path_1571" data-name="Path 1571" d="M0,0H1.485V2.97H0Z" transform="matrix(0.5, -0.866, 0.866, 0.5, 39.112, 33.701)" fill="#42139b"/>
    <path id="Path_1572" data-name="Path 1572" d="M0,0H1.485V2.97H0Z" transform="translate(36.236 37.118) rotate(-45)" fill="#42139b"/>
    <path id="Path_1573" data-name="Path 1573" d="M0,0H1.485V2.97H0Z" transform="matrix(0.866, -0.5, 0.5, 0.866, 32.589, 39.675)" fill="#42139b"/>
    <path id="Path_1574" data-name="Path 1574" d="M0,0H1.485V2.97H0Z" transform="translate(28.403 41.205) rotate(-15.009)" fill="#42139b"/>
  </g>
</svg>
