<svg xmlns="http://www.w3.org/2000/svg" width="56" height="56" viewBox="0 0 56 56">
  <g id="contact-us" transform="translate(-4 -4)">
    <path id="Path_1824" data-name="Path 1824" d="M37.632,23.768h1v6h-1Z" transform="translate(-7.759 34.804) rotate(-45)" fill="#fff"/>
    <path id="Path_1825" data-name="Path 1825" d="M15,36V16.414L4.414,27l9,9Z" fill="#fff"/>
    <path id="Path_1826" data-name="Path 1826" d="M27.733,13.868h1v6h-1Z" transform="translate(-3.659 24.904) rotate(-45)" fill="#fff"/>
    <path id="Path_1827" data-name="Path 1827" d="M4,59a1,1,0,0,0,1,1H59a1,1,0,0,0,1-1V29.414l-8.293,8.293A1,1,0,0,1,51,38H13a1,1,0,0,1-.707-.293L4,29.414Z" fill="#fff"/>
    <path id="Path_1828" data-name="Path 1828" d="M49,16.414V36h1.586l9-9Z" fill="#fff"/>
    <path id="Path_1829" data-name="Path 1829" d="M17,36H47V7a3,3,0,0,0-3-3H39V5a3,3,0,0,1-3,3H28a3,3,0,0,1-3-3V4H20a3,3,0,0,0-3,3Zm6.757-20.9a1.982,1.982,0,0,1,.587-1.415l1.413-1.414a1.029,1.029,0,0,1,1.414,0l5.657,5.657a1,1,0,0,1,0,1.414l-1.414,1.414a2,2,0,0,1-2.828,0,1,1,0,0,0,0,1.415l4.242,4.242a1,1,0,0,0,1.415,0,2,2,0,0,1,0-2.828l1.414-1.414a1,1,0,0,1,1.414,0l5.657,5.657a1,1,0,0,1,0,1.414l-1.415,1.414a2,2,0,0,1-2.828,0,6,6,0,0,1-8.485,0L24.343,25a6.007,6.007,0,0,1,0-8.485,1.986,1.986,0,0,1-.586-1.415Z" fill="#fff"/>
    <path id="Path_1830" data-name="Path 1830" d="M31.414,29.243a4.006,4.006,0,0,0,5.657,0l-1.414-1.415a3,3,0,0,1-4.243,0l-4.242-4.242a3,3,0,0,1,0-4.243l-1.415-1.414a4.006,4.006,0,0,0,0,5.657Z" fill="#fff"/>
    <path id="Path_1831" data-name="Path 1831" d="M28,6h8a1,1,0,0,0,1-1V4H27V5A1,1,0,0,0,28,6Z" fill="#fff"/>
  </g>
</svg>
