<svg id="course" xmlns="http://www.w3.org/2000/svg" width="58.622" height="58.549" viewBox="0 0 58.622 58.549">
  <path id="Path_1497" data-name="Path 1497" d="M23.263,34.234A28.288,28.288,0,0,1,23.923,29H19.411a14.67,14.67,0,0,0-1.361,5.234Z" transform="translate(-3.342 -2.903)" fill="#f75a5e"/>
  <path id="Path_1498" data-name="Path 1498" d="M31.28,36H25.03a25.319,25.319,0,0,0,.869,5.852,31.951,31.951,0,0,1,5.381-.586Z" transform="translate(-3.015 -2.575)" fill="#f75a5e"/>
  <path id="Path_1499" data-name="Path 1499" d="M20.866,43.621a18.893,18.893,0,0,1,3.318-1.267A27.741,27.741,0,0,1,23.263,36H18.05a14.5,14.5,0,0,0,2.816,7.621Z" transform="translate(-3.342 -2.575)" fill="#f75a5e"/>
  <path id="Path_1500" data-name="Path 1500" d="M22.06,44.891a14.531,14.531,0,0,0,4.815,3.224,15.5,15.5,0,0,1-2.251-4.135,19.3,19.3,0,0,0-2.565.911Z" transform="translate(-3.154 -2.201)" fill="#f75a5e"/>
  <path id="Path_1501" data-name="Path 1501" d="M31.211,49.1V43.03a29.771,29.771,0,0,0-4.711.5C27.641,46.464,29.316,48.536,31.211,49.1Z" transform="translate(-2.946 -2.246)" fill="#f75a5e"/>
  <path id="Path_1502" data-name="Path 1502" d="M38.545,56v2.094A1.047,1.047,0,0,1,37.5,59.14H29.124a1.047,1.047,0,0,1-1.047-1.047V56H4v3.14a1.047,1.047,0,0,0,1.047,1.047H61.575a1.047,1.047,0,0,0,1.047-1.047V56Z" transform="translate(-4 -1.638)" fill="#336799"/>
  <rect id="Rectangle_106" data-name="Rectangle 106" width="6.281" height="1.047" transform="translate(26.171 54.362)" fill="#f75a5e"/>
  <path id="Path_1503" data-name="Path 1503" d="M46.224,36H41.011a27.741,27.741,0,0,1-.921,6.354,18.9,18.9,0,0,1,3.318,1.267A14.5,14.5,0,0,0,46.224,36Z" transform="translate(-2.31 -2.575)" fill="#f75a5e"/>
  <path id="Path_1504" data-name="Path 1504" d="M33,49.1c1.9-.565,3.57-2.638,4.711-5.569A29.774,29.774,0,0,0,33,43.03Z" transform="translate(-2.642 -2.246)" fill="#f75a5e"/>
  <path id="Path_1505" data-name="Path 1505" d="M39.591,43.98a15.5,15.5,0,0,1-2.251,4.135,14.531,14.531,0,0,0,4.815-3.224,19.3,19.3,0,0,0-2.565-.911Z" transform="translate(-2.439 -2.201)" fill="#f75a5e"/>
  <path id="Path_1506" data-name="Path 1506" d="M44.852,29H40.34A28.289,28.289,0,0,1,41,34.234h5.213A14.67,14.67,0,0,0,44.852,29Z" transform="translate(-2.298 -2.903)" fill="#f75a5e"/>
  <path id="Path_1507" data-name="Path 1507" d="M32.962,18.1a1.1,1.1,0,0,1-.733,0l-9.683-3.57L19.28,27.584H45.911L42.645,14.53Z" transform="translate(-3.284 -3.58)" fill="#336799"/>
  <path id="Path_1508" data-name="Path 1508" d="M8.094,27.14A1.047,1.047,0,0,1,9.14,26.094h8.867L18.531,24H7.047A1.047,1.047,0,0,0,6,25.047V55.4H8.094Z" transform="translate(-3.906 -3.137)" fill="#336799"/>
  <path id="Path_1510" data-name="Path 1510" d="M46.03,24l.523,2.094H55.42a1.047,1.047,0,0,1,1.047,1.047V55.4h2.094V25.047A1.047,1.047,0,0,0,57.514,24Z" transform="translate(-2.032 -3.137)" fill="#336799"/>
  <path id="Path_1511" data-name="Path 1511" d="M33,41.266a31.952,31.952,0,0,1,5.381.586A25.319,25.319,0,0,0,39.25,36H33Z" transform="translate(-2.642 -2.575)" fill="#f75a5e"/>
  <path id="Path_1512" data-name="Path 1512" d="M31.28,29H25.752a26.4,26.4,0,0,0-.722,5.234h6.25Z" transform="translate(-3.015 -2.903)" fill="#f75a5e"/>
  <path id="Path_1513" data-name="Path 1513" d="M38.527,29H33v5.234h6.25A26.4,26.4,0,0,0,38.527,29Z" transform="translate(-2.642 -2.903)" fill="#f75a5e"/>
  <circle id="Ellipse_70" data-name="Ellipse 70" cx="1.047" cy="1.047" r="1.047" transform="translate(28.264 5.161)" fill="#f75a5e"/>
  <path id="Path_1514" data-name="Path 1514" d="M46.771,11.325h.639V15.8a2.107,2.107,0,0,0-1.047,1.8v3.14H50.55V17.6a2.047,2.047,0,0,0-.618-1.476A2.2,2.2,0,0,0,49.5,15.8V10.278a1.047,1.047,0,0,0-1.047-1.047H46.771L32.754,4.07,15.89,10.278l16.864,6.208ZM29.614,10.278a3.14,3.14,0,0,1,6.093-1.047H44.27v2.094H35.706a3.14,3.14,0,0,1-6.093-1.047Z" transform="translate(-3.443 -4.07)" fill="#336799"/>
</svg>
