<svg xmlns="http://www.w3.org/2000/svg" width="59" height="59" viewBox="0 0 59 59">
  <g id="discount" transform="translate(0 0)">
    <path id="Path_1832" data-name="Path 1832" d="M56.037,29.5l2.819-6.693a1.844,1.844,0,0,0-.584-2.184L52.488,16.23l-.916-7.206a1.844,1.844,0,0,0-1.6-1.6L42.77,6.512,38.378.729A1.846,1.846,0,0,0,36.194.144L29.5,2.963,22.807.144a1.844,1.844,0,0,0-2.184.584L16.23,6.512l-7.206.916a1.844,1.844,0,0,0-1.6,1.6L6.512,16.23.729,20.622a1.844,1.844,0,0,0-.584,2.184L2.963,29.5.144,36.193a1.844,1.844,0,0,0,.584,2.184L6.512,42.77l.916,7.206a1.844,1.844,0,0,0,1.6,1.6l7.206.916,4.393,5.784A1.844,1.844,0,0,0,22.092,59c.528,0,.231.059,7.408-2.963l6.693,2.819a1.844,1.844,0,0,0,2.184-.584l4.394-5.784,7.206-.916a1.844,1.844,0,0,0,1.6-1.6l.916-7.206,5.784-4.393a1.844,1.844,0,0,0,.584-2.184Zm-6.256,0A20.281,20.281,0,1,1,29.5,9.219,20.3,20.3,0,0,1,49.781,29.5Z" transform="translate(0 0)" fill="#fff"/>
    <path id="Path_1833" data-name="Path 1833" d="M128.6,112A16.594,16.594,0,1,0,145.19,128.6,16.613,16.613,0,0,0,128.6,112Zm-10.14,11.062a3.687,3.687,0,1,1,3.687,3.687A3.692,3.692,0,0,1,118.456,123.065Zm5.143,15.881a1.844,1.844,0,1,1-2.911-2.263l12.906-16.594a1.844,1.844,0,0,1,2.911,2.263Zm11.451.712a3.687,3.687,0,1,1,3.687-3.687A3.692,3.692,0,0,1,135.05,139.659Z" transform="translate(-99.097 -99.096)" fill="#fff"/>
  </g>
</svg>
