<svg xmlns="http://www.w3.org/2000/svg" width="29.333" height="30.366" viewBox="0 0 29.333 30.366">
  <g id="enquire" transform="translate(13 -4)">
    <path id="Path_1888" data-name="Path 1888" d="M209.287,203.684a5.62,5.62,0,0,0-3.082-5,7.643,7.643,0,0,1-7.525,7.525,5.6,5.6,0,0,0,7.855,2.3l2.728.754-.754-2.728a5.583,5.583,0,0,0,.779-2.851Zm0,0" transform="translate(-192.954 -187.954)" fill="#fff"/>
    <path id="Path_1889" data-name="Path 1889" d="M13.237,6.619A6.619,6.619,0,1,0,.918,9.983l-.893,3.23,3.23-.893a6.62,6.62,0,0,0,9.983-5.7ZM5.6,5.078H4.587a2.031,2.031,0,1,1,3.4,1.5l-.863.79v.792H6.111V6.92L7.3,5.828a1,1,0,0,0,.331-.75,1.016,1.016,0,1,0-2.031,0Zm.508,4.1H7.126V10.19H6.111Zm0,0" transform="translate(-1 4)" fill="#fff"/>
    <g id="_001-call" data-name="001-call" transform="translate(-75.064 -167.351)">
      <path id="Path_1850" data-name="Path 1850" d="M309.984,386.326A.9.9,0,0,0,309.4,386a1.071,1.071,0,0,0-.647.355l-.166.166,5.187,5.187.064-.065a.6.6,0,0,1,.062-.066.816.816,0,0,0-.019-1.353L310,386.348Z" transform="translate(-225.953 -193.085)" fill="#fff"/>
      <path id="Path_1851" data-name="Path 1851" d="M103.435,180.882c.517-.517.517-.832,0-1.35l-1.916-1.916-.006-.006q-.166-.171-.33-.337l-.337-.344c-.457-.472-.843-.862-1.243-1.236l-.014-.014-.022-.022a.947.947,0,0,0-.61-.319,1.042,1.042,0,0,0-.661.334l-.2.2,5.175,5.175Z" transform="translate(-33.022 0)" fill="#fff"/>
      <path id="Path_1852" data-name="Path 1852" d="M67.794,207.117a30.586,30.586,0,0,0,10.164,7.961,14.663,14.663,0,0,0,5.257,1.585c.088.006.188.006.286.006a2.8,2.8,0,0,0,2.2-.921A18.367,18.367,0,0,1,87,214.4l-5.183-5.183L80.4,210.627a2.052,2.052,0,0,1-1.48.655,2.1,2.1,0,0,1-.956-.237c-.03-.015-.061-.033-.091-.052l-.006,0-.034-.02c-.181-.112-.408-.225-.648-.346a10.137,10.137,0,0,1-.915-.5,26.291,26.291,0,0,1-6.358-5.777l-.028-.033a15.967,15.967,0,0,1-2.348-3.837q-.008-.019-.014-.038l-.021-.064,0-.008a2.008,2.008,0,0,1,.48-2.153.662.662,0,0,1,.084-.083l0,0c.459-.412.888-.829,1.353-1.3l-5.178-5.178-1.359,1.359a2.629,2.629,0,0,0-.8,1.721,9.457,9.457,0,0,0,.751,4.139A27.975,27.975,0,0,0,67.794,207.117Z" transform="translate(0 -14.952)" fill="#fff"/>
    </g>
  </g>
</svg>
