<svg xmlns="http://www.w3.org/2000/svg" width="60.398" height="45" viewBox="0 0 60.398 45">
  <g id="find" transform="translate(0 -65.267)">
    <path id="Path_1839" data-name="Path 1839" d="M144.723,96.631c13.793,0,21.089-16.777,11.092-26.776a15.7,15.7,0,0,0-22.184,0c-9.89,9.892-2.79,26.776,11.092,26.776Z" transform="translate(-113.801)" fill="#fff"/>
    <path id="Path_1840" data-name="Path 1840" d="M358.813,285.285l-10.859-10.861a19.256,19.256,0,0,1-7.79,7.891l10.81,10.812a5.544,5.544,0,0,0,7.84-7.841Z" transform="translate(-300.036 -184.484)" fill="#fff"/>
    <path id="Path_1841" data-name="Path 1841" d="M1.756,218.453H9.3a1.77,1.77,0,0,0,0-3.539H1.756a1.77,1.77,0,0,0,0,3.539Z" transform="translate(0 -131.994)" fill="#fff"/>
    <path id="Path_1842" data-name="Path 1842" d="M1.756,282.453H12.135a1.77,1.77,0,0,0,0-3.539H1.756a1.77,1.77,0,0,0,0,3.539Z" transform="translate(0 -188.444)" fill="#fff"/>
    <path id="Path_1843" data-name="Path 1843" d="M1.756,346.453H19.683a1.77,1.77,0,0,0,0-3.539H1.756a1.77,1.77,0,0,0,0,3.539Z" transform="translate(0 -244.895)" fill="#fff"/>
    <path id="Path_1844" data-name="Path 1844" d="M40.442,406.914H1.756a1.77,1.77,0,0,0,0,3.539H40.442A1.77,1.77,0,0,0,40.442,406.914Z" transform="translate(0 -301.345)" fill="#fff"/>
  </g>
</svg>
