<svg id="growth" xmlns="http://www.w3.org/2000/svg" width="52.722" height="52.722" viewBox="0 0 52.722 52.722">
  <path id="Path_1732" data-name="Path 1732" d="M39.545,352.8v12.012h8.573V352.8a1.061,1.061,0,0,0-1.061-1.061H40.606A1.061,1.061,0,0,0,39.545,352.8Z" transform="translate(-35.473 -315.521)" fill="#f6e266"/>
  <path id="Path_1733" data-name="Path 1733" d="M156.1,302.849V320h8.573V302.849a1.061,1.061,0,0,0-1.061-1.061h-6.451a1.061,1.061,0,0,0-1.061,1.061Z" transform="translate(-140.025 -270.713)" fill="#e49542"/>
  <path id="Path_1734" data-name="Path 1734" d="M272.65,240.41v23.585h8.572V240.41a1.061,1.061,0,0,0-1.061-1.061H273.71A1.061,1.061,0,0,0,272.65,240.41Z" transform="translate(-244.575 -214.703)" fill="#9dc6fb"/>
  <path id="Path_1735" data-name="Path 1735" d="M389.2,198.784v27.871h8.573V198.784a1.061,1.061,0,0,0-1.061-1.061h-6.451A1.061,1.061,0,0,0,389.2,198.784Z" transform="translate(-349.127 -177.363)" fill="#00264c"/>
  <path id="Path_1736" data-name="Path 1736" d="M272.65,331.869v11.384h8.572V327.7a74.667,74.667,0,0,1-8.572,4.169Z" transform="translate(-244.575 -293.961)" fill="#80b4fb"/>
  <path id="Path_1737" data-name="Path 1737" d="M162.731,381.636c-2.234.742-4.452,1.375-6.633,1.9v7.491h8.573V380.965Q163.711,381.31,162.731,381.636Z" transform="translate(-140.024 -341.737)" fill="#e28424"/>
  <path id="Path_1738" data-name="Path 1738" d="M39.545,414.329v5.622h8.573v-6.744a67.978,67.978,0,0,1-8.573,1.122Z" transform="translate(-35.473 -370.66)" fill="#f1d333"/>
  <path id="Path_1739" data-name="Path 1739" d="M389.2,245.252V262.9h8.573V238.126a45.328,45.328,0,0,1-8.573,7.126Z" transform="translate(-349.127 -213.606)" fill="#cb4500"/>
  <path id="Path_1740" data-name="Path 1740" d="M0,481.067V479.76a1.061,1.061,0,0,1,1.061-1.06h50.6a1.061,1.061,0,0,1,1.061,1.061v1.307a1.061,1.061,0,0,1-1.061,1.061H1.061A1.061,1.061,0,0,1,0,481.067Z" transform="translate(0 -429.407)" fill="#00264c"/>
  <path id="Path_1741" data-name="Path 1741" d="M81.474,0H73.962A1.061,1.061,0,0,0,72.9,1.061V2.368a1.061,1.061,0,0,0,1.061,1.061h3.372l-9,9H61.221a1.715,1.715,0,0,0-1.264.556L49.858,24H39.565A1.061,1.061,0,0,0,38.5,25.064v1.307a1.061,1.061,0,0,0,1.061,1.061H50.613a1.715,1.715,0,0,0,1.264-.556l10.1-11.017h7.068a1.714,1.714,0,0,0,1.212-.5l9.5-9.5V9.226a1.061,1.061,0,0,0,1.061,1.061h1.307a1.061,1.061,0,0,0,1.061-1.061V1.714A1.715,1.715,0,0,0,81.474,0Z" transform="translate(-34.539)" fill="#00264c"/>
</svg>
