<svg xmlns="http://www.w3.org/2000/svg" width="55.08" height="55" viewBox="0 0 55.08 55">
  <g id="hurry" transform="translate(0 -0.374)">
    <path id="Path_1834" data-name="Path 1834" d="M347.748.374V3.6a14.459,14.459,0,0,1,14.443,14.443h3.227A17.69,17.69,0,0,0,347.748.374Z" transform="translate(-310.338)" fill="#fff"/>
    <path id="Path_1835" data-name="Path 1835" d="M347.748,61.058v3.227a7.923,7.923,0,0,1,7.914,7.914h3.227A11.154,11.154,0,0,0,347.748,61.058Z" transform="translate(-310.338 -54.156)" fill="#fff"/>
    <path id="Path_1836" data-name="Path 1836" d="M347.748,120.043v3.227a1.571,1.571,0,0,1,1.569,1.569h3.227A4.8,4.8,0,0,0,347.748,120.043Z" transform="translate(-310.338 -106.795)" fill="#fff"/>
    <path id="Path_1837" data-name="Path 1837" d="M147.418,53.738h3.227v-2.9h2.706V47.608h-8.64v3.234h2.706Z" transform="translate(-129.144 -42.153)" fill="#fff"/>
    <path id="Path_1838" data-name="Path 1838" d="M19.888,136.754a20.166,20.166,0,0,0,0,40.328,20.166,20.166,0,0,0,0-40.328Zm10.438,7.665,2.057,2.057-2.845,2.844-2.057-2.057Zm-11.9-3.72H21.34v4.023H18.431Zm-8.985,3.724,2.844,2.844-2.057,2.057L7.389,146.48ZM3.669,158.375v-2.909H7.692v2.909ZM9.45,169.417,7.393,167.36l2.844-2.844,2.057,2.057Zm11.9,3.72H18.436v-4.023h2.909Zm-1.457-13.253a2.966,2.966,0,1,1,2.585-4.42l5.57,0v2.909l-5.57,0a2.964,2.964,0,0,1-2.584,1.511Zm10.442,9.529-2.844-2.844,2.057-2.057,2.844,2.844Zm5.777-11.043H32.084v-2.909h4.023Z" transform="translate(0 -121.708)" fill="#fff"/>
  </g>
</svg>
