<svg xmlns="http://www.w3.org/2000/svg" width="39" height="39" viewBox="0 0 39 39">
  <path id="information" d="M19.5,0A19.5,19.5,0,1,0,39,19.5,19.522,19.522,0,0,0,19.5,0Zm1.268,31.07c-.926.154-2.77.54-3.706.618a2.281,2.281,0,0,1-2-1.039,2.437,2.437,0,0,1-.3-2.232l3.686-10.136H14.625a4.581,4.581,0,0,1,3.607-4.261,14.111,14.111,0,0,1,3.705-.614,2.939,2.939,0,0,1,2,1.039,2.437,2.437,0,0,1,.3,2.232L20.543,26.813h3.831a4.315,4.315,0,0,1-3.605,4.257Zm1.169-18.882A2.438,2.438,0,1,1,24.375,9.75a2.438,2.438,0,0,1-2.438,2.438Z" fill="#fff"/>
</svg>
