<svg xmlns="http://www.w3.org/2000/svg" xmlns:xlink="http://www.w3.org/1999/xlink" width="31.25" height="31.232" viewBox="0 0 31.25 31.232">
  <defs>
    <linearGradient id="linear-gradient" x1="0.5" y1="1" x2="0.5" gradientUnits="objectBoundingBox">
      <stop offset="0" stop-color="#336799"/>
      <stop offset="1" stop-color="#336799"/>
    </linearGradient>
  </defs>
  <path id="instructor" d="M25.683,1a6.549,6.549,0,1,0,6.549,6.549A6.549,6.549,0,0,0,25.683,1Zm4.93,4.03H28.727a9.793,9.793,0,0,0-1.7-2.85,5.557,5.557,0,0,1,3.586,2.85ZM25.67,12.9a9.54,9.54,0,0,1-1.962-2.836h3.924A9.556,9.556,0,0,1,25.67,12.9ZM23.358,9.06a5.632,5.632,0,0,1,0-3.022h4.625a5.632,5.632,0,0,1,0,3.022ZM20.142,7.549a5.524,5.524,0,0,1,.215-1.511h1.961a6.657,6.657,0,0,0,0,3.022H20.357a5.524,5.524,0,0,1-.215-1.511ZM25.67,2.194A9.556,9.556,0,0,1,27.632,5.03H23.708A9.537,9.537,0,0,1,25.67,2.194Zm3.352,3.843h1.987a5.422,5.422,0,0,1,0,3.022H29.023a6.648,6.648,0,0,0,0-3.022ZM24.3,2.189A9.787,9.787,0,0,0,22.61,5.03H20.754A5.556,5.556,0,0,1,24.3,2.189Zm-3.549,7.879H22.61a9.787,9.787,0,0,0,1.69,2.841,5.556,5.556,0,0,1-3.546-2.842Zm6.276,2.85a9.782,9.782,0,0,0,1.7-2.85h1.885a5.557,5.557,0,0,1-3.582,2.85Zm-6.384.676a1.707,1.707,0,0,0-.5-1.216l-2.31-2.31A1.766,1.766,0,0,0,15.958,9.7l-.645-.645a1.749,1.749,0,0,0-1.608-.44A8.562,8.562,0,0,0,3.789,22.436c.308.282.686.585,1.086.907A15.44,15.44,0,0,1,9.309,28.3a3.024,3.024,0,0,0-2.264,2.922v1.007H19.638l-1.814-2.418a8.57,8.57,0,0,1-1.613-3.869l2.378-1.189a4.632,4.632,0,0,0,2.071-6.215l-.478-.957.536-1.608-.871-.872.3-.3a1.707,1.707,0,0,0,.5-1.207Zm-1.216-.5a.713.713,0,0,1,0,1.007l-2.814,2.814-.547-.547,3.318-3.318ZM11.075,24.172A3.019,3.019,0,0,1,8.613,19.4l.732.732A1.988,1.988,0,0,0,9.06,21.15a2.015,2.015,0,1,0,2.576-1.926l.8-.764a3.017,3.017,0,0,1-1.363,5.712ZM5.126,19.423a5.532,5.532,0,0,1,6.045-8.609,2.916,2.916,0,0,0-.027,3.509l-.07.07a1.708,1.708,0,0,0-.5,1.216,1.728,1.728,0,0,0,.027.271L8.222,18.3a4.14,4.14,0,0,0-.35.406,12.467,12.467,0,0,1-2.746.714ZM11.871,13.6a1.867,1.867,0,0,1-.165-1.681l.923.923Zm-.8,6.546a1,1,0,1,1-.712.291,1.007,1.007,0,0,1,.712-.291Zm-1.06-.765-.725-.725,1.788-1.825.787.787Zm4.082-.955-2.31-2.31a.713.713,0,0,1,0-1.007l.8-.8L15.9,17.623l-.8.8a.731.731,0,0,1-1.007,0Zm.46-3.57,3.318-3.318.8.8-3.318,3.318ZM17.12,10.78l.043.043-3.318,3.318-.547-.547,2.814-2.814a.713.713,0,0,1,1.007,0ZM14.6,9.772l.547.547-1.806,1.806L12.29,11.074l1.3-1.3a.731.731,0,0,1,1.01,0ZM9.564,8.556a7.563,7.563,0,0,1,3.137.685l-.772.772a6.538,6.538,0,0,0-7.941,9.522c-.221.012-.44.031-.662.031h-.47A7.536,7.536,0,0,1,9.564,8.556ZM3.468,20.57A13.5,13.5,0,0,0,7.21,20a4.041,4.041,0,0,0-.163,1.088,14.5,14.5,0,0,1-2.726.45,7.493,7.493,0,0,1-.853-.973Zm2.038,1.987-.134-.109A15.447,15.447,0,0,0,7.164,22.1a4.036,4.036,0,0,0,3.273,3.02A2.4,2.4,0,0,1,9.4,26.476a18.624,18.624,0,0,0-3.9-3.919Zm2.546,8.667a2.017,2.017,0,0,1,2.015-2.015,2.986,2.986,0,0,1,2.827,2.015Zm9.571,0H13.957l-.1-.289a3.973,3.973,0,0,0-.336-.726,4.736,4.736,0,0,0,2.73-.993,9.587,9.587,0,0,0,.764,1.2Zm1.942-14.976-.472,1.414.665,1.33a3.623,3.623,0,0,1-1.621,4.863l-4.77,2.385.451.9,1.448-.724a9.553,9.553,0,0,0,.547,1.864,3.758,3.758,0,0,1-2.44.927h-.667a3.976,3.976,0,0,0-2.313-.982c-.144-.311-.294-.614-.457-.9a3.41,3.41,0,0,0,1.51-2.061l.027-.109A4.034,4.034,0,0,0,15.1,21.15a3.99,3.99,0,0,0-.317-1.529,1.7,1.7,0,0,0,1.029-.486l3.318-3.318ZM27.7,15.1a4.521,4.521,0,0,0-4.269,6.045H22.157a1.008,1.008,0,0,0-1.007,1.007V29.2a1.008,1.008,0,0,0,1.007,1.007h8.06A1.008,1.008,0,0,0,31.224,29.2V22.482A4.529,4.529,0,0,0,27.7,15.1ZM22.159,29.2V22.157h1.774a4.564,4.564,0,0,0,.924,1.007H23.165v1.007H27.7a4.507,4.507,0,0,0,2.519-.767v5.8ZM27.7,23.165a3.526,3.526,0,1,1,3.526-3.526A3.526,3.526,0,0,1,27.7,23.165ZM26.187,22.04l4-2.4-4-2.4Zm1.007-3.022,1.036.621-1.036.621ZM23.164,27.2h6.045v1H23.165Zm0,5.037H22.157V31.224h1.007Zm2.015-1.007v1.007H24.172V31.224Zm2.015,1.007H26.187V31.224h1.007Zm-4.03-7.052h6.045v1.007H23.165Z" transform="translate(-0.985 -1)" fill="url(#linear-gradient)"/>
</svg>
