<svg xmlns="http://www.w3.org/2000/svg" width="34.264" height="34.273" viewBox="0 0 34.264 34.273">
  <g id="job-search" transform="translate(-0.007)">
    <g id="Group_705" data-name="Group 705" transform="translate(0.005)">
      <g id="Group_704" data-name="Group 704">
        <circle id="Ellipse_81" data-name="Ellipse 81" cx="1.663" cy="1.663" r="1.663" transform="translate(12.228 11.508)" fill="#00264c"/>
        <path id="Path_1575" data-name="Path 1575" d="M211.082,119.737a1.664,1.664,0,0,0,3.327,0c0-.015,0-.03,0-.044a1.663,1.663,0,1,0-3.326.046Z" transform="translate(-192.919 -107.913)" fill="#00264c"/>
        <path id="Path_1576" data-name="Path 1576" d="M75.34,118.073A1.663,1.663,0,1,0,77,119.736v-.044A1.663,1.663,0,0,0,75.34,118.073Z" transform="translate(-67.338 -107.913)" fill="#00264c"/>
        <path id="Path_1577" data-name="Path 1577" d="M202.684,189.109h-.856a2.607,2.607,0,0,0-2.248,1.214,4.4,4.4,0,0,1,1.349,3.1v3.551a13.021,13.021,0,0,0,4.5-3.686v-1.439A2.742,2.742,0,0,0,202.684,189.109Z" transform="translate(-182.408 -172.837)" fill="#00264c"/>
        <path id="Path_1578" data-name="Path 1578" d="M61.891,189.126h-.809a2.553,2.553,0,0,0-2.562,2.742v1.618a9.746,9.746,0,0,0,4.5,3.6v-3.641a4.226,4.226,0,0,1,1.259-3.1,2.922,2.922,0,0,0-2.388-1.219Z" transform="translate(-53.484 -172.852)" fill="#00264c"/>
        <path id="Path_1579" data-name="Path 1579" d="M129.854,204.8h-.764a2.823,2.823,0,0,0-2.652,2.967v4.091a9.485,9.485,0,0,0,3.057.449,12.9,12.9,0,0,0,3.237-.494v-4.046a3.012,3.012,0,0,0-2.878-2.967Z" transform="translate(-115.558 -187.177)" fill="#00264c"/>
        <path id="Path_1580" data-name="Path 1580" d="M40.586,29.256a11.329,11.329,0,0,0-10.34,15.959,4.136,4.136,0,0,1,4.091-3.551h.809a4.091,4.091,0,0,1,3.372,1.8,3.911,3.911,0,0,1,1.753-.45h.764a3.6,3.6,0,0,1,1.708.45,4.181,4.181,0,0,1,3.417-1.8h.764a4.136,4.136,0,0,1,4.091,3.282,11.823,11.823,0,0,0,.854-4.406A11.329,11.329,0,0,0,40.586,29.256ZM34.742,41.529a3.012,3.012,0,1,1,3.012-3.012,3.012,3.012,0,0,1-3.012,3.012Zm5.889,1.394h0a3.012,3.012,0,1,1,3.012-3.012,3.012,3.012,0,0,1-3.012,3.012Zm8.946-4.406a3.012,3.012,0,1,1-.88-2.133A3.012,3.012,0,0,1,49.577,38.517Z" transform="translate(-26.74 -26.739)" fill="#00264c"/>
        <path id="Path_1581" data-name="Path 1581" d="M27.607,13.8a13.8,13.8,0,1,0-13.8,13.8h.045A13.8,13.8,0,0,0,27.607,13.8ZM13.851,26.479A12.677,12.677,0,1,1,26.483,13.756q0,.023,0,.045A12.677,12.677,0,0,1,13.85,26.479Z" transform="translate(-0.005)" fill="#00264c"/>
        <path id="Path_1582" data-name="Path 1582" d="M313.522,310.908l-5.8-5.8-2.607,2.607,5.8,5.8a1.708,1.708,0,0,0,1.3.539,1.888,1.888,0,0,0,1.3-.539,2.023,2.023,0,0,0,.539-1.3,1.932,1.932,0,0,0-.532-1.307Z" transform="translate(-279.788 -279.782)" fill="#00264c"/>
        <path id="Path_1583" data-name="Path 1583" d="M0,0,2.1.114l.028,1.663L0,1.8Z" transform="translate(24.784 23.489) rotate(45)" fill="#00264c"/>
      </g>
    </g>
  </g>
</svg>
