<svg xmlns="http://www.w3.org/2000/svg" width="33.829" height="33.816" viewBox="0 0 33.829 33.816">
  <g id="leadership" transform="translate(0.005 -0.04)">
    <path id="Path_1589" data-name="Path 1589" d="M211.372,148.555l1.747-4.543-5.073,4.51,1.127,1.691Z" transform="translate(-193.388 -133.832)" fill="#fff"/>
    <path id="Path_1590" data-name="Path 1590" d="M13.119,11.986h5.637A2.819,2.819,0,0,0,14.934,9.36a3.946,3.946,0,0,0-6.888,2.627Z" transform="translate(-7.48 -7.444)" fill="#f9f6ed"/>
    <g id="Group_716" data-name="Group 716" transform="translate(17.833 4.543)">
      <path id="Path_1602" data-name="Path 1602" d="M2.819,0A2.819,2.819,0,1,1,0,2.819,2.819,2.819,0,0,1,2.819,0Z" transform="translate(0.771)" fill="#fff"/>
      <path id="Path_1591" data-name="Path 1591" d="M260.26,149.491l-2.441-.406.564-2.819h5.637v-2.255H255l-1.747,4.543a2.255,2.255,0,0,0,1.9,3.055l3.23.293v3.382H261.2V150.6a1.127,1.127,0,0,0-.941-1.11Z" transform="translate(-253.103 -138.375)" fill="#fff"/>
    </g>
    <path id="Path_1592" data-name="Path 1592" d="M408.046,8.012v4.51l4.51-2.255Z" transform="translate(-379.295 -7.415)" fill="#00264c"/>
    <g id="Group_717" data-name="Group 717" transform="translate(3.74 10.18)">
      <circle id="Ellipse_83" data-name="Ellipse 83" cx="2.819" cy="2.819" r="2.819" transform="translate(0.771 0)" fill="#fff"/>
      <path id="Path_1593" data-name="Path 1593" d="M60.26,214.619l-2.441-.406.564-2.255H61.2l3.946-2.255-1.127-1.691L60.638,209.7l-3.382-.564H55l-1.747,4.543a2.255,2.255,0,0,0,1.9,3.055l3.23.293v3.382H61.2v-4.684a1.127,1.127,0,0,0-.94-1.106Z" transform="translate(-53.103 -203.502)" fill="#fff"/>
    </g>
    <path id="Path_1594" data-name="Path 1594" d="M8.046,316.413v-.564l7.328-1.691v-4.51h9.019l5.073-5.637H41.3v12.4Z" transform="translate(-7.48 -282.558)" fill="#00264c"/>
    <path id="Path_1595" data-name="Path 1595" d="M211.992,248.012l-1.691,2.819-2.255,2.255,1.691,1.691,2.819-2.819,2.255-3.382Z" transform="translate(-193.388 -230.504)" fill="#fff"/>
    <path id="Path_1596" data-name="Path 1596" d="M11.992,328.012,10.3,330.831l-2.255,2.255,1.691,1.691,2.819-2.819,2.255-3.382Z" transform="translate(-7.48 -304.867)" fill="#fff"/>
    <g id="Group_718" data-name="Group 718" transform="translate(-0.001 0.035)">
      <path id="Path_1597" data-name="Path 1597" d="M8.5,1.21a3.382,3.382,0,0,0-.846.113A4.51,4.51,0,0,0,.046,4.592a.564.564,0,0,0,.564.564H11.32a.564.564,0,0,0,.564-.564A3.382,3.382,0,0,0,8.5,1.21ZM1.219,4.028A3.382,3.382,0,0,1,7.075,2.337a.564.564,0,0,0,.62.152,2.255,2.255,0,0,1,2.988,1.539Z" transform="translate(-0.043 -0.084)" fill="#42139b"/>
      <path id="Path_1598" data-name="Path 1598" d="M120.046,88.012h1.127v1.127h-1.127Z" transform="translate(-111.587 -81.813)" fill="#00264c"/>
      <path id="Path_1599" data-name="Path 1599" d="M152.046,88.012h1.127v1.127h-1.127Z" transform="translate(-141.332 -81.813)" fill="#00264c"/>
      <path id="Path_1600" data-name="Path 1600" d="M184.046,88.012h1.127v1.127h-1.127Z" transform="translate(-171.077 -81.813)" fill="#00264c"/>
      <path id="Path_1601" data-name="Path 1601" d="M29.314,16.38V5.456l4.2-2.1a.564.564,0,0,0,0-1L29,.1a.564.564,0,0,0-.817.5V9.616h-4.25a3.382,3.382,0,1,0-4.776.256L19.2,9.9l-4.853,4.312-3.157,1.6-1.6-.293a3.382,3.382,0,1,0-4.436.045v.045l-1.77,4.548a2.818,2.818,0,0,0,.237,2.5,2.942,2.942,0,0,0,.3.4l-1.55,2.559-2.21,2.2a.564.564,0,0,0,0,.8h0l1.695,1.7a.564.564,0,0,0,.8,0h0l2.819-2.819a.562.562,0,0,0,.068-.09l2.165-3.247.75.068v2.306H7.894a.564.564,0,0,0-.564.564v4.059L.442,32.728a.564.564,0,0,0-.44.564v.564H1.129v-.113l6.888-1.578a.564.564,0,0,0,.44-.564V27.654h8.456a.564.564,0,0,0,.417-.186l4.91-5.451H33.824V20.89H26.5V16.769a1.691,1.691,0,0,0-1.415-1.691l-1.866-.316L23.576,13h4.611v3.38h1.127Zm0-12.187V1.51L32,2.852Zm-7.892.913a2.255,2.255,0,1,1-2.255,2.255,2.255,2.255,0,0,1,2.255-2.255Zm-3.05,7.035-.857,2.227-1.6,1.2-.524-.784Zm.536,5.93a2.988,2.988,0,0,0,.924.248l.693.062-1.8,2.689-2.379,2.407-.9-.9,1.86-1.855a.839.839,0,0,0,.085-.113ZM7.33,10.743A2.255,2.255,0,1,1,5.075,13,2.255,2.255,0,0,1,7.33,10.743ZM4.636,26.73,2.257,29.114l-.9-.9,1.86-1.855a.839.839,0,0,0,.085-.113L4.813,23.7a2.988,2.988,0,0,0,.924.248l.693.062Zm4.949-.2V23.709a.564.564,0,0,0-.513-.564l-3.23-.293a1.691,1.691,0,0,1-1.426-2.289L6.028,16.38H7.849l3.337.564a.564.564,0,0,0,.344-.056l2.937-1.466.513.772-3.292,1.877H9.021a.564.564,0,0,0-.564.428l-.564,2.255a.563.563,0,0,0,.073.445.592.592,0,0,0,.383.248l2.441.406a.564.564,0,0,1,.468.564v4.109H9.585Zm12.4-5.637a.564.564,0,0,0-.417.186l-4.91,5.451H12.4V22.406a1.691,1.691,0,0,0-1.415-1.663l-1.838-.31.31-1.235H11.84a.637.637,0,0,0,.282-.073l3.946-2.255h.039l1.178-.891a2.858,2.858,0,0,0,.4,1.082,2.942,2.942,0,0,0,.3.4l-1.533,2.559-2.21,2.2a.564.564,0,0,0,0,.8h0l1.691,1.691a.564.564,0,0,0,.8,0h0l2.819-2.819a.562.562,0,0,0,.068-.09L21.78,18.55l.75.068V20.89h-.547Zm1.127-9.019a.564.564,0,0,0-.564.451l-.564,2.819a.568.568,0,0,0,.462.671l2.441.406a.564.564,0,0,1,.468.564V20.89h-1.68V18.072a.564.564,0,0,0-.513-.564l-3.23-.293a1.691,1.691,0,0,1-1.426-2.289l1.612-4.183h8.067V11.87H23.114Z" transform="translate(0.001 -0.035)" fill="#42139b"/>
    </g>
  </g>
</svg>
