<svg xmlns="http://www.w3.org/2000/svg" width="70.522" height="75.547" viewBox="0 0 70.522 75.547">
  <g id="limit" transform="translate(-0.063 0)">
    <path id="Path_1813" data-name="Path 1813" d="M58.973,19.637l2.77-2.77L63.379,18.5l1.762-1.763-5.035-5.035-1.762,1.763,1.637,1.636-3.022,3.021A31.069,31.069,0,0,0,44.12,12.965V8.56L49.155,7.3V3.776A3.709,3.709,0,0,0,45.379,0H32.791a3.709,3.709,0,0,0-3.776,3.776V7.3L34.05,8.56v4.406c-.881.126-1.762.378-2.518.5a3.726,3.726,0,0,0-3.776-3.4H3.839A3.709,3.709,0,0,0,.063,13.847V30.211a3.709,3.709,0,0,0,3.776,3.776h8.182L16.427,39.9l4.406-5.917h6.923a3.709,3.709,0,0,0,3.776-3.776v-14.1A28.871,28.871,0,1,1,11.139,51.484a30.668,30.668,0,0,1-.126-14.727l-2.392-.629a31.478,31.478,0,1,0,50.351-16.49ZM31.532,5.287V3.776a1.189,1.189,0,0,1,1.259-1.259H45.379a1.189,1.189,0,0,1,1.259,1.259V5.287l-3.9,1.007h-7.3ZM29.015,30.211a1.189,1.189,0,0,1-1.259,1.259H19.574l-3.147,4.154L13.28,31.47H3.839A1.189,1.189,0,0,1,2.58,30.211V13.847a1.189,1.189,0,0,1,1.259-1.259H27.756a1.189,1.189,0,0,1,1.259,1.259Zm7.553-17.5v-3.9H41.6v3.9a16.858,16.858,0,0,0-2.518-.126A16.85,16.85,0,0,0,36.567,12.714Zm0,0" fill="#fff"/>
    <path id="Path_1814" data-name="Path 1814" d="M87.616,137.175H80.063v1.259a26.435,26.435,0,1,0,40.785-22.281l-.126-.125A28.212,28.212,0,0,0,106.5,112h-1.259v6.294h2.518v-3.776a24.29,24.29,0,0,1,11.077,3.4l-1.888,1.888,1.762,1.762,2.266-2.266a23.561,23.561,0,0,1,9.315,17.749h-3.776v2.518h3.65a23.7,23.7,0,0,1-6.042,14.728l-3.021-3.021-1.763,1.762,3.022,3.021A23.705,23.705,0,0,1,107.63,162.1v-3.524h-2.518v3.776a23.507,23.507,0,0,1-14.1-5.539l2.392-2.392-1.763-1.763-2.392,2.392a24.253,24.253,0,0,1-6.8-15.357H87.49v-2.518Zm0,0" transform="translate(-67.413 -94.377)" fill="#fff"/>
    <path id="Path_1815" data-name="Path 1815" d="M186.258,269.6l-10.2,7.3v6.923h7.049l5.79-11.581ZM181.6,281.308H178.58v-3.147l7.049-5.035Zm0,0" transform="translate(-148.306 -227.18)" fill="#ff610f"/>
    <path id="Path_1816" data-name="Path 1816" d="M40.063,168H42.58v2.518H40.063Zm0,0" transform="translate(-33.706 -141.565)" fill="#ff610f"/>
    <path id="Path_1817" data-name="Path 1817" d="M40.063,96H42.58v8.812H40.063Zm0,0" transform="translate(-33.706 -80.894)" fill="#ff610f"/>
    <path id="Path_1818" data-name="Path 1818" d="M80.063,112H92.65v2.518H80.063Zm0,0" transform="translate(-67.412 -94.377)" fill="#ff610f"/>
    <path id="Path_1819" data-name="Path 1819" d="M80.063,144H92.65v2.518H80.063Zm0,0" transform="translate(-67.412 -121.342)" fill="#ff610f"/>
  </g>
</svg>
