<svg xmlns="http://www.w3.org/2000/svg" width="54.501" height="54.495" viewBox="0 0 54.501 54.495">
  <g id="location" transform="translate(2.501 -1.502)">
    <g id="Group_685" data-name="Group 685">
      <g id="worldwide_1_" data-name="worldwide (1)" transform="translate(-2.501 1.503)">
        <g id="Group_687" data-name="Group 687" transform="translate(7.266 7.267)">
          <g id="Group_686" data-name="Group 686">
            <path id="Path_1517" data-name="Path 1517" d="M97.082,68.908a20,20,0,0,0-18.413-4.191c-.465.128-.924.279-1.378.44a19.948,19.948,0,0,0-7.674,4.919q-.376.387-.727.8a19.983,19.983,0,0,0,20.383,32.382c.465-.128.924-.279,1.378-.44a19.947,19.947,0,0,0,7.67-4.918q.376-.387.727-.8a19.983,19.983,0,0,0-1.966-28.192ZM71.1,71.167h0c.4-.4.817-.792,1.256-1.154s.893-.7,1.362-1.021c.04-.026.077-.055.116-.082.447-.3.908-.577,1.379-.836.064-.035.127-.072.192-.106.461-.246.934-.471,1.414-.677l.233-.1c.462-.191.934-.363,1.411-.511A17.542,17.542,0,0,0,74.9,72.749,22.045,22.045,0,0,1,71.03,71.24C71.051,71.215,71.076,71.191,71.1,71.167Zm-1.293,1.465a23.34,23.34,0,0,0,4.533,1.842,34.021,34.021,0,0,0-1.247,8.6h-7.25A18.1,18.1,0,0,1,69.807,72.632Zm0,22.708a18.1,18.1,0,0,1-3.964-10.446h7.25a34.027,34.027,0,0,0,1.247,8.6,23.341,23.341,0,0,0-4.533,1.846Zm7.244,5.441-.236-.1Q76.1,100.372,75.4,100l-.193-.107c-.47-.259-.931-.535-1.377-.835l-.119-.084c-.465-.319-.919-.656-1.355-1.018S71.5,97.206,71.1,96.8l-.074-.072A22.114,22.114,0,0,1,74.9,95.221a17.536,17.536,0,0,0,3.558,6.07C77.985,101.14,77.514,100.971,77.051,100.781Zm6.009,1.281c-2.561-.536-4.837-3.315-6.336-7.3A32.929,32.929,0,0,1,83.06,94Zm0-9.874a34.683,34.683,0,0,0-6.916.843,31.941,31.941,0,0,1-1.235-8.137H83.06Zm0-9.111H74.909a31.931,31.931,0,0,1,1.235-8.137,34.683,34.683,0,0,0,6.916.843Zm0-9.111a32.934,32.934,0,0,1-6.336-.757c1.5-3.98,3.775-6.76,6.336-7.3Zm15.07-1.335a18.1,18.1,0,0,1,3.964,10.446h-7.25a34.026,34.026,0,0,0-1.247-8.6,23.332,23.332,0,0,0,4.534-1.845Zm-7.244-5.44.236.1q.719.308,1.412.676l.193.107c.47.259.931.535,1.377.835l.119.084c.465.319.919.656,1.355,1.018s.853.75,1.255,1.154l.074.072a22.109,22.109,0,0,1-3.876,1.513,17.536,17.536,0,0,0-3.558-6.07c.48.153.952.32,1.414.512Zm-6.009-1.277c2.561.536,4.837,3.315,6.336,7.3a32.935,32.935,0,0,1-6.336.757Zm0,9.869a34.683,34.683,0,0,0,6.916-.843,31.941,31.941,0,0,1,1.235,8.137H84.877Zm0,9.111h8.151a31.931,31.931,0,0,1-1.235,8.137,34.683,34.683,0,0,0-6.916-.843Zm0,17.167V94a32.932,32.932,0,0,1,6.336.757c-1.5,3.98-3.775,6.759-6.336,7.3Zm11.961-5.256h0c-.4.4-.818.792-1.256,1.154s-.893.7-1.362,1.021c-.04.026-.077.054-.116.082-.447.3-.908.577-1.379.836-.064.035-.127.072-.192.106-.461.246-.934.471-1.414.677l-.233.1c-.462.191-.934.363-1.411.511a17.541,17.541,0,0,0,3.558-6.069,22.048,22.048,0,0,1,3.876,1.512Zm1.293-1.465A23.34,23.34,0,0,0,93.6,93.5a34.019,34.019,0,0,0,1.247-8.6h7.25a18.1,18.1,0,0,1-3.966,10.44Z" transform="translate(-63.984 -64.003)" fill="#336799"/>
          </g>
        </g>
        <g id="Group_689" data-name="Group 689" transform="translate(8.176 10.028)">
          <g id="Group_688" data-name="Group 688">
            <path id="Path_1518" data-name="Path 1518" d="M112.467,88.658a.908.908,0,1,0-1.425,1.126,25.173,25.173,0,0,1,5.469,15.759,25.433,25.433,0,0,1-41.167,19.983h3.017a.908.908,0,1,0,0-1.817H72.9a.88.88,0,0,0-.231.047.8.8,0,0,0-.116.025c-.023.009-.04.03-.062.041a.909.909,0,0,0-.23.162l-.008,0a.843.843,0,0,0-.056.091.874.874,0,0,0-.127.2.964.964,0,0,0-.041.2.893.893,0,0,0-.026.133v5.45a.908.908,0,1,0,1.817,0v-3.445a27.243,27.243,0,0,0,44.508-21.08,26.969,26.969,0,0,0-5.861-16.88Z" transform="translate(-72.003 -88.322)" fill="#f75a5e"/>
          </g>
        </g>
        <g id="Group_691" data-name="Group 691" transform="translate(0.001)">
          <g id="Group_690" data-name="Group 690">
            <path id="Path_1519" data-name="Path 1519" d="M45.418,1.817a.908.908,0,0,0-.908.908V6.17A27.243,27.243,0,0,0,0,27.25,26.96,26.96,0,0,0,5.9,44.189a.908.908,0,0,0,1.428-1.122l-.006-.007a25.161,25.161,0,0,1-5.5-15.81A25.433,25.433,0,0,1,42.985,7.267H39.968a.909.909,0,0,0,0,1.817h5.459a.884.884,0,0,0,.272-.055.714.714,0,0,0,.075-.016,1.034,1.034,0,0,0,.086-.058.878.878,0,0,0,.206-.145l.008,0a.846.846,0,0,0,.057-.091.616.616,0,0,0,.167-.4.908.908,0,0,0,.026-.133V2.725a.908.908,0,0,0-.906-.908Z" transform="translate(-0.001)" fill="#f75a5e"/>
          </g>
        </g>
      </g>
    </g>
  </g>
</svg>
