<svg xmlns="http://www.w3.org/2000/svg" width="29.199" height="29.198" viewBox="0 0 29.199 29.198">
  <g id="message" transform="translate(0.004)">
    <path id="Path_221" data-name="Path 221" d="M169.881,182H152.715A1.713,1.713,0,0,0,151,183.711v11.976a1.713,1.713,0,0,0,1.711,1.711H166.9l3.229,3.176a.856.856,0,0,0,1.455-.61V183.711A1.713,1.713,0,0,0,169.881,182Zm-2.623,11.919H155.281a.855.855,0,0,1,0-1.711h11.976a.856.856,0,0,1,0,1.711Zm-12.832-4.277a.855.855,0,0,1,.855-.855h8.555a.856.856,0,0,1,0,1.711h-8.555a.855.855,0,0,1-.855-.856Zm12.832-2.566H155.281a.855.855,0,1,1,0-1.711h11.976a.856.856,0,0,1,0,1.711Z" transform="translate(-142.392 -171.621)" fill="#fff"/>
    <path id="Path_222" data-name="Path 222" d="M20.592,8.669V1.711A1.713,1.713,0,0,0,18.881,0H1.715A1.713,1.713,0,0,0,0,1.711V17.965a.856.856,0,0,0,1.455.61L4.688,15.4H6.9V12.09a3.426,3.426,0,0,1,3.422-3.422Zm-4.277-.057a.855.855,0,1,1,.855-.855.855.855,0,0,1-.855.855ZM4.338,3.479H16.315a.855.855,0,0,1,0,1.711H4.338a.856.856,0,0,1,0-1.711Zm1.711,8.555H4.338a.856.856,0,0,1,0-1.711H6.049a.856.856,0,0,1,0,1.711ZM4.338,8.612a.855.855,0,1,1,0-1.711h8.555a.856.856,0,0,1,0,1.711Z" transform="translate(-0.004)" fill="#fff"/>
  </g>
</svg>
