<svg xmlns="http://www.w3.org/2000/svg" width="27.164" height="27.307" viewBox="0 0 27.164 27.307">
  <g id="onsite" transform="translate(0)">
    <g id="Group_727" data-name="Group 727" transform="translate(0 15.167)">
      <path id="Path_1680" data-name="Path 1680" d="M12.247,290.079v.8H8V280.021h4.244V290.08Z" transform="translate(-7.579 -279.596)" fill="#ebe1ff"/>
      <path id="Path_1681" data-name="Path 1681" d="M99.886,298.831l8.2-1.18a1.747,1.747,0,0,1,.289-.024,1.654,1.654,0,0,1,1.7,1.606,1.586,1.586,0,0,1-.849,1.39L97.764,306.46,88,305.255v-9.234h3.82l6.659,1.229a1.63,1.63,0,0,1,1.407,1.581Z" transform="translate(-83.335 -294.747)" fill="#ebe1ff"/>
      <path id="Path_1682" data-name="Path 1682" d="M109.208,332.3a1.689,1.689,0,0,1-.833,1.242l-11.158,5.791L88,338.088v2.05l9.761,1.273,11.459-6.171a1.689,1.689,0,0,0-.016-2.939Z" transform="translate(-83.335 -329.698)" fill="#ebe1ff"/>
      <path id="Path_1697" data-name="Path 1697" d="M40.63,464.854a.424.424,0,0,1,0-.849h0a.424.424,0,1,1,0,.849Z" transform="translate(-38.07 -454.415)" fill="#00264c"/>
      <path id="Path_1698" data-name="Path 1698" d="M465.277,324.022a.424.424,0,0,1-.213-.792,1.274,1.274,0,0,0-.637-2.377.424.424,0,1,1,0-.849,2.122,2.122,0,0,1,1.062,3.96.421.421,0,0,1-.212.058Z" transform="translate(-439.387 -317.633)" fill="#00264c"/>
      <path id="Path_1699" data-name="Path 1699" d="M264.423,386.737a.424.424,0,0,1-.2-.8l11.459-6.169a.424.424,0,0,1,.4.747l-11.459,6.169a.42.42,0,0,1-.2.053Z" transform="translate(-249.993 -374.6)" fill="#00264c"/>
      <path id="Path_1700" data-name="Path 1700" d="M90.19,474.12a.394.394,0,0,1-.055,0l-9.761-1.273a.424.424,0,0,1,.109-.841l9.761,1.273a.424.424,0,0,1-.054.845Z" transform="translate(-75.76 -461.984)" fill="#00264c"/>
      <path id="Path_1701" data-name="Path 1701" d="M4.671,283.717H.427a.414.414,0,0,1-.424-.4v-10.9a.414.414,0,0,1,.424-.4H4.671a.414.414,0,0,1,.424.4v10.9a.414.414,0,0,1-.424.4Zm-3.82-.808h3.4v-10.1H.852v10.1Z" transform="translate(-0.003 -272.005)" fill="#00264c"/>
      <path id="Path_1702" data-name="Path 1702" d="M304.431,322.578a.424.424,0,0,1-.063-.844l8.2-1.248a.424.424,0,1,1,.128.839l-8.2,1.248a.417.417,0,0,1-.065.005Z" transform="translate(-287.879 -318.053)" fill="#00264c"/>
      <path id="Path_1703" data-name="Path 1703" d="M272.427,316.711a.424.424,0,1,1,0-.849,1.273,1.273,0,0,0,.219-2.527.424.424,0,1,1,.144-.836,2.122,2.122,0,0,1-.364,4.212Z" transform="translate(-257.573 -310.495)" fill="#00264c"/>
      <path id="Path_1704" data-name="Path 1704" d="M159.08,290.142a.409.409,0,0,1-.082-.008l-6.658-1.3a.425.425,0,1,1,.16-.834l6.658,1.3a.425.425,0,0,1-.081.841Z" transform="translate(-143.934 -287.146)" fill="#00264c"/>
      <path id="Path_1705" data-name="Path 1705" d="M84.247,288.854h-3.82a.425.425,0,0,1,0-.849h3.82a.424.424,0,1,1,0,.849Z" transform="translate(-75.759 -287.156)" fill="#00264c"/>
      <path id="Path_1706" data-name="Path 1706" d="M173.766,369.264h-.033l-5.339-.415a.424.424,0,1,1,.065-.846l5.339.415a.424.424,0,1,1-.032.848Z" transform="translate(-159.09 -363.172)" fill="#00264c"/>
      <path id="Path_1707" data-name="Path 1707" d="M458.957,320.878a.424.424,0,0,1-.071-.842,2.092,2.092,0,0,1,.362-.031.424.424,0,1,1,0,.849,1.32,1.32,0,0,0-.219.018.412.412,0,0,1-.072.006Z" transform="translate(-434.208 -317.586)" fill="#00264c"/>
      <path id="Path_1708" data-name="Path 1708" d="M269.256,376.674a2.141,2.141,0,0,1-.222-.012.424.424,0,1,1,.09-.844,1.242,1.242,0,0,0,.133.007.424.424,0,1,1,0,.849Z" transform="translate(-254.402 -370.585)" fill="#00264c"/>
    </g>
    <g id="_005-building" data-name="005-building" transform="translate(5.929)">
      <path id="Path_1710" data-name="Path 1710" d="M200,179.771h1.086v.889H200Z" transform="translate(-194.076 -174.446)" fill="#00264c"/>
      <path id="Path_1711" data-name="Path 1711" d="M200,120.22h1.086v.889H200Z" transform="translate(-194.076 -116.659)" fill="#00264c"/>
      <path id="Path_1712" data-name="Path 1712" d="M200,60.669h1.086v.889H200Z" transform="translate(-194.076 -58.872)" fill="#00264c"/>
      <path id="Path_1713" data-name="Path 1713" d="M200,239.346h1.086v.889H200Z" transform="translate(-194.076 -232.256)" fill="#00264c"/>
      <path id="Path_1714" data-name="Path 1714" d="M275.336,179.771h1.086v.889h-1.086Z" transform="translate(-267.18 -174.446)" fill="#00264c"/>
      <path id="Path_1715" data-name="Path 1715" d="M275.336,120.22h1.086v.889h-1.086Z" transform="translate(-267.18 -116.659)" fill="#00264c"/>
      <path id="Path_1716" data-name="Path 1716" d="M275.336,60.669h1.086v.889h-1.086Z" transform="translate(-267.18 -58.872)" fill="#00264c"/>
      <path id="Path_1717" data-name="Path 1717" d="M275.336,239.346h1.086v.889h-1.086Z" transform="translate(-267.18 -232.256)" fill="#00264c"/>
      <path id="Path_1718" data-name="Path 1718" d="M14.283,12.2V3.42L11.249,1.761V0H3.917V5.148H.884V12.2H0v2.962H15.166V12.2Zm-.889-8.258v.464H12.266V5.3h1.128v.875H12.266v.889h1.128v.875H12.266v.889h1.128V12.2H11.249V2.774ZM10.361.889V12.2H9.242V8.8H5.924v3.4H4.806V.889ZM8.353,12.2H6.813V9.684h1.54Zm-6.581-.876H2.9V10.44H1.772V9.564H2.9V8.676H1.772V7.8H2.9V6.912H1.772V6.037H3.917V12.2H1.772Zm12.505,2.95H.889V13.093H14.278Z" fill="#00264c"/>
    </g>
  </g>
</svg>
