<svg xmlns="http://www.w3.org/2000/svg" width="83" height="34" viewBox="0 0 83 34">
  <g id="pmp-logo" transform="translate(-98 -237)">
    <g id="Rectangle_71" data-name="Rectangle 71" transform="translate(98 237)" fill="#fff" stroke="#707070" stroke-width="1">
      <rect width="83" height="34" stroke="none"/>
      <rect x="0.5" y="0.5" width="82" height="33" fill="none"/>
    </g>
    <g id="logo_pmi" data-name="logo/pmi" transform="translate(107.848 244.162)">
      <g id="Logo" transform="translate(0 0)">
        <path id="Fill-1" d="M6.712,38.477a2.238,2.238,0,0,1,2.236-2.239h0V34H0v2.238a2.238,2.238,0,0,1,2.238,2.238h0A2.238,2.238,0,0,1,0,40.715v2.238H8.953V40.715a2.238,2.238,0,0,1-2.24-2.235Z" transform="translate(0 -23.962)" fill="#05bfe0" fill-rule="evenodd"/>
        <path id="Fill-3" d="M36.476,6.475A4.476,4.476,0,0,0,32,2v8.953a4.476,4.476,0,0,0,4.476-4.475,4.476,4.476,0,0,0,4.476,4.475V2a4.476,4.476,0,0,0-4.477,4.475" transform="translate(-22.451 -1.511)" fill="#00264c" fill-rule="evenodd"/>
        <path id="Fill-5" d="M5.871,6.476H1.683V3.682H5.871a1.4,1.4,0,0,1,0,2.794ZM6.15,2.014C6.058,2.005,5.965,2,5.871,2H0v8.953H1.677V8.159H5.871a1.859,1.859,0,0,0,.279-.014,3.076,3.076,0,0,0,0-6.127Z" transform="translate(0 -1.511)" fill="#231f20" fill-rule="evenodd"/>
        <path id="Fill-7" d="M32,57.686V55l2.686,2.686Z" transform="translate(-22.451 -38.695)" fill="#4f17a8" fill-rule="evenodd"/>
        <path id="Fill-9" d="M37.96,46.46,33,41.5V39l7.46,7.46Z" transform="translate(-23.152 -27.47)" fill="#4f17a8" fill-rule="evenodd"/>
        <path id="Fill-11" d="M56.686,34v2.686L54,34Z" transform="translate(-37.886 -23.962)" fill="#4f17a8" fill-rule="evenodd"/>
        <path id="Fill-13" d="M44.46,41.46,37,34h2.507l4.954,4.952Z" transform="translate(-25.958 -23.962)" fill="#4f17a8" fill-rule="evenodd"/>
        <path id="Fill-15" d="M64.512,62h.128l.214.482L65.065,62h.128v.6H65.1V62.13l-.206.467h-.089l-.2-.467V62.6h-.1Zm-.334.084H64V62h.45v.084h-.177v.51h-.095Z" transform="translate(-44.901 -43.606)" fill-rule="evenodd"/>
        <path id="Fill-17" d="M79.939,3.308a1.039,1.039,0,0,0,.447-.094.766.766,0,0,0,.31-.264.65.65,0,0,0,.111-.372A.672.672,0,0,0,80.7,2.2a.742.742,0,0,0-.307-.258,1.052,1.052,0,0,0-.453-.094h-.877V3.3ZM78,1h2.115a2.043,2.043,0,0,1,.847.184,1.629,1.629,0,0,1,.664.541,1.432,1.432,0,0,1,.251.859,1.479,1.479,0,0,1-.227.808,1.552,1.552,0,0,1-.629.563,2.01,2.01,0,0,1-.919.205h-1.04V5.775H78Z" transform="translate(-54.724 -0.81)" fill-rule="evenodd"/>
        <path id="Fill-19" d="M93,5.1h.781l.15.511a.993.993,0,0,1,.386-.454A1.084,1.084,0,0,1,94.9,5a1.017,1.017,0,0,1,.531.137,1.071,1.071,0,0,1,.376.386,1.386,1.386,0,0,1,.18.572l-.828.217a.639.639,0,0,0-.175-.426.524.524,0,0,0-.386-.17.508.508,0,0,0-.316.106.684.684,0,0,0-.218.295,1.124,1.124,0,0,0-.077.426v1.74H93Z" transform="translate(-65.247 -3.616)" fill-rule="evenodd"/>
        <path id="Fill-21" d="M106.235,7.4a.78.78,0,0,0,.3-.307,1,1,0,0,0,0-.9.794.794,0,0,0-.3-.308.869.869,0,0,0-.435-.112.857.857,0,0,0-.434.112.787.787,0,0,0-.3.307.99.99,0,0,0,0,.9.772.772,0,0,0,.3.307.847.847,0,0,0,.437.112.856.856,0,0,0,.432-.111Zm-1.366.679a1.533,1.533,0,0,1-.633-.575,1.713,1.713,0,0,1-.011-1.72,1.536,1.536,0,0,1,.643-.577,2.214,2.214,0,0,1,1.862,0,1.524,1.524,0,0,1,.621.577,1.613,1.613,0,0,1,.227.86,1.614,1.614,0,0,1-.227.86,1.525,1.525,0,0,1-.632.575,2.214,2.214,0,0,1-1.863,0Z" transform="translate(-72.964 -3.616)" fill-rule="evenodd"/>
        <g id="Group-25" transform="translate(33.517)">
          <path id="Fill-23" d="M1.847,1.329A.535.535,0,0,1,1.682.921a.528.528,0,0,1,.161-.4.645.645,0,0,1,.838,0,.531.531,0,0,1,.163.4.537.537,0,0,1-.163.406.645.645,0,0,1-.838,0ZM.776,6.628a1.116,1.116,0,0,1-.46-.368L.749,5.7a.633.633,0,0,0,.233.251.6.6,0,0,0,.311.09.448.448,0,0,0,.422-.269.689.689,0,0,0,.057-.286V1.921h.972V5.628a1.072,1.072,0,0,1-.627.993,1.523,1.523,0,0,1-.676.144,1.588,1.588,0,0,1-.668-.136Z" transform="translate(-0.316 -0.362)" fill-rule="evenodd"/>
        </g>
        <path id="Fill-26" d="M123.42,5.764a.669.669,0,0,0-.267.238.968.968,0,0,0-.142.357h1.507A.9.9,0,0,0,124.4,6a.7.7,0,0,0-.614-.328.79.79,0,0,0-.363.09m1.282-.549a1.435,1.435,0,0,1,.6.572,1.692,1.692,0,0,1,.211.853v.142a1.137,1.137,0,0,1-.01.119h-2.49a.724.724,0,0,0,.174.38.933.933,0,0,0,.368.251,1.327,1.327,0,0,0,.49.087,1.409,1.409,0,0,0,.568-.119A.889.889,0,0,0,125,7.21l.585.386a1.274,1.274,0,0,1-.629.5,2.549,2.549,0,0,1-1,.189,2.281,2.281,0,0,1-1-.213,1.721,1.721,0,0,1-.695-.595A1.5,1.5,0,0,1,122,6.616a1.539,1.539,0,0,1,.229-.841,1.588,1.588,0,0,1,.641-.57A2.034,2.034,0,0,1,123.8,5a1.928,1.928,0,0,1,.907.216" transform="translate(-85.593 -3.616)" fill-rule="evenodd"/>
        <path id="Fill-28" d="M135.889,8.076a1.593,1.593,0,0,1-.653-.585A1.567,1.567,0,0,1,135,6.643a1.634,1.634,0,0,1,.223-.851,1.537,1.537,0,0,1,.612-.583A1.854,1.854,0,0,1,136.728,5a1.958,1.958,0,0,1,.729.136,1.618,1.618,0,0,1,.575.376,1.158,1.158,0,0,1,.3.556l-.892.211a.671.671,0,0,0-.255-.384.725.725,0,0,0-.442-.148.71.71,0,0,0-.394.112.756.756,0,0,0-.274.317,1.036,1.036,0,0,0-.1.465.952.952,0,0,0,.114.465.807.807,0,0,0,.306.317.919.919,0,0,0,.828.024.855.855,0,0,0,.3-.238.737.737,0,0,0,.152-.345l.9.119a1.3,1.3,0,0,1-.3.668,1.7,1.7,0,0,1-.63.46,2.168,2.168,0,0,1-1.76-.042Z" transform="translate(-94.713 -3.616)" fill-rule="evenodd"/>
        <path id="Fill-30" d="M148.276,6.332a1.042,1.042,0,0,1-.456-.414,1.251,1.251,0,0,1-.154-.638V3.838H147V3.109h.666v-.9L148.684,2l-.008,1.109h1.4v.729h-1.4l.007,1.3a.585.585,0,0,0,.149.418.507.507,0,0,0,.386.154.7.7,0,0,0,.412-.125.967.967,0,0,0,.3-.347l.358.568a1.4,1.4,0,0,1-.516.5,1.56,1.56,0,0,1-.758.171,1.648,1.648,0,0,1-.732-.144" transform="translate(-103.133 -1.511)" fill-rule="evenodd"/>
        <path id="Fill-32" d="M78,25h.805l1.731,3.9L82.268,25h.805v4.476h-.556V25.762L80.83,29.476h-.589l-1.685-3.708v3.708H78Z" transform="translate(-54.724 -17.648)" fill-rule="evenodd"/>
        <path id="Fill-34" d="M98.887,31.731a1,1,0,0,0,.4-.356.942.942,0,0,0,.148-.515v-.219l-.966.119a1.8,1.8,0,0,0-.762.222.454.454,0,0,0-.229.372.418.418,0,0,0,.232.367,1.166,1.166,0,0,0,.6.139,1.253,1.253,0,0,0,.574-.128m-1.3.433a1.012,1.012,0,0,1-.434-.325A.77.77,0,0,1,97,31.364a.756.756,0,0,1,.145-.454,1.146,1.146,0,0,1,.454-.346,2.655,2.655,0,0,1,.808-.2l.767-.09a.318.318,0,0,0,.19-.075.2.2,0,0,0,.071-.159.474.474,0,0,0-.122-.328.836.836,0,0,0-.334-.22,1.29,1.29,0,0,0-.456-.076,1.2,1.2,0,0,0-.511.106.976.976,0,0,0-.358.271.6.6,0,0,0-.145.34l-.428-.175a.882.882,0,0,1,.226-.469,1.345,1.345,0,0,1,.52-.356A1.892,1.892,0,0,1,98.542,29a1.725,1.725,0,0,1,.706.138,1.136,1.136,0,0,1,.483.391,1.012,1.012,0,0,1,.174.585v1.543a.218.218,0,0,0,.046.151.153.153,0,0,0,.122.055.23.23,0,0,0,.131-.049.482.482,0,0,0,.122-.132l.254.289a.676.676,0,0,1-.276.228.823.823,0,0,1-.356.084.493.493,0,0,1-.52-.463.42.42,0,0,1,0-.047v-.119a1.2,1.2,0,0,1-.289.334,1.242,1.242,0,0,1-.412.217,1.662,1.662,0,0,1-.507.075,1.626,1.626,0,0,1-.63-.114" transform="translate(-68.053 -20.454)" fill-rule="evenodd"/>
        <path id="Fill-36" d="M110,29.125h.45l.045.463a1.17,1.17,0,0,1,.476-.432,1.416,1.416,0,0,1,.651-.156,1.382,1.382,0,0,1,.714.181,1.253,1.253,0,0,1,.478.494,1.486,1.486,0,0,1,.17.716v1.889h-.5V30.394a1.086,1.086,0,0,0-.11-.494.818.818,0,0,0-.319-.34.953.953,0,0,0-.489-.125A1.044,1.044,0,0,0,110.5,30.45V32.28H110Z" transform="translate(-77.174 -20.454)" fill-rule="evenodd"/>
        <path id="Fill-38" d="M123.885,31.73a1.011,1.011,0,0,0,.4-.356.942.942,0,0,0,.142-.514v-.22l-.965.119a1.8,1.8,0,0,0-.761.222.453.453,0,0,0-.229.371.418.418,0,0,0,.232.367,1.166,1.166,0,0,0,.6.139,1.25,1.25,0,0,0,.578-.128m-1.3.433a1,1,0,0,1-.434-.325.77.77,0,0,1-.155-.475.758.758,0,0,1,.145-.453,1.128,1.128,0,0,1,.46-.346,2.647,2.647,0,0,1,.808-.2l.768-.09a.313.313,0,0,0,.188-.075.2.2,0,0,0,.072-.153.474.474,0,0,0-.122-.328.842.842,0,0,0-.334-.22,1.273,1.273,0,0,0-.455-.078,1.2,1.2,0,0,0-.511.106.993.993,0,0,0-.362.264.615.615,0,0,0-.145.34l-.428-.175a.877.877,0,0,1,.226-.469,1.343,1.343,0,0,1,.52-.356,1.88,1.88,0,0,1,.714-.132,1.729,1.729,0,0,1,.7.139,1.145,1.145,0,0,1,.489.391,1.012,1.012,0,0,1,.173.585v1.543a.225.225,0,0,0,.046.151.155.155,0,0,0,.122.055.232.232,0,0,0,.131-.049.485.485,0,0,0,.122-.132l.254.289a.69.69,0,0,1-.276.228.821.821,0,0,1-.356.084.5.5,0,0,1-.521-.467q0-.021,0-.042v-.119a1.165,1.165,0,0,1-.287.334,1.247,1.247,0,0,1-.412.217,1.665,1.665,0,0,1-.507.075,1.631,1.631,0,0,1-.631-.115" transform="translate(-85.593 -20.454)" fill-rule="evenodd"/>
        <path id="Fill-40" d="M136.539,31.9a1.153,1.153,0,0,0,.424-.463,1.423,1.423,0,0,0,.15-.665,1.513,1.513,0,0,0-.153-.686,1.16,1.16,0,0,0-.424-.476,1.106,1.106,0,0,0-.6-.171,1.128,1.128,0,0,0-1.032.648,1.514,1.514,0,0,0-.152.685,1.39,1.39,0,0,0,.156.664,1.148,1.148,0,0,0,1.629.463Zm-1.509,2.04a1.889,1.889,0,0,1-.627-.368,1.572,1.572,0,0,1-.4-.543l.407-.29a1.086,1.086,0,0,0,.274.457,1.367,1.367,0,0,0,.48.311,1.653,1.653,0,0,0,.615.113,1.362,1.362,0,0,0,.688-.171,1.181,1.181,0,0,0,.462-.471,1.393,1.393,0,0,0,.163-.681v-.446a1.478,1.478,0,0,1-.523.5,1.4,1.4,0,0,1-.7.175,1.542,1.542,0,0,1-.825-.227,1.581,1.581,0,0,1-.573-.624,1.925,1.925,0,0,1-.206-.9,1.992,1.992,0,0,1,.206-.908,1.532,1.532,0,0,1,1.4-.867,1.415,1.415,0,0,1,1.23.665l.05-.551h.434V32.3a1.817,1.817,0,0,1-.232.917,1.614,1.614,0,0,1-.637.63,1.861,1.861,0,0,1-.924.227,2.243,2.243,0,0,1-.761-.131Z" transform="translate(-94.015 -20.454)" fill-rule="evenodd"/>
        <path id="Fill-42" d="M149.082,29.543a1.016,1.016,0,0,0-.389.343,1.231,1.231,0,0,0-.2.507h2.172a1.262,1.262,0,0,0-.177-.509.941.941,0,0,0-.367-.34,1.067,1.067,0,0,0-.511-.119,1.151,1.151,0,0,0-.534.119m1.357-.338a1.424,1.424,0,0,1,.546.576,1.8,1.8,0,0,1,.2.833V30.7a.877.877,0,0,1-.006.093h-2.686a1.143,1.143,0,0,0,.651.942,1.462,1.462,0,0,0,1.286-.027,1.017,1.017,0,0,0,.433-.418l.418.163a1.3,1.3,0,0,1-.577.595,2.035,2.035,0,0,1-1.852.018,1.574,1.574,0,0,1-.624-.595,1.74,1.74,0,0,1-.02-1.69,1.5,1.5,0,0,1,.581-.576,1.7,1.7,0,0,1,.839-.206,1.582,1.582,0,0,1,.808.2" transform="translate(-103.834 -20.454)" fill-rule="evenodd"/>
        <path id="Fill-44" d="M160,29.127h.429l.053.393a1.055,1.055,0,0,1,.409-.384,1.194,1.194,0,0,1,.566-.135,1.4,1.4,0,0,1,.71.178,1.066,1.066,0,0,1,.452.485,1.207,1.207,0,0,1,.46-.481,1.316,1.316,0,0,1,1.768.4,1.113,1.113,0,0,1,.056.1,1.485,1.485,0,0,1,.17.715v1.886h-.5V30.388a1.073,1.073,0,0,0-.11-.493.831.831,0,0,0-.762-.463.958.958,0,0,0-.478.125.829.829,0,0,0-.328.341,1.025,1.025,0,0,0-.117.493v1.891h-.494V30.388a1.1,1.1,0,0,0-.108-.493.8.8,0,0,0-.305-.334.877.877,0,0,0-.46-.125.955.955,0,0,0-.481.125.822.822,0,0,0-.321.334,1.049,1.049,0,0,0-.114.493v1.892H160Z" transform="translate(-112.253 -20.452)" fill-rule="evenodd"/>
        <path id="Fill-46" d="M180.091,29.537a1.018,1.018,0,0,0-.394.343,1.234,1.234,0,0,0-.2.507h2.175a1.261,1.261,0,0,0-.177-.51.939.939,0,0,0-.367-.34,1.067,1.067,0,0,0-.512-.119,1.153,1.153,0,0,0-.532.119Zm1.353-.338a1.425,1.425,0,0,1,.547.577,1.834,1.834,0,0,1,.2.836V30.7a.809.809,0,0,1-.006.093H179.5a1.135,1.135,0,0,0,.649.943,1.462,1.462,0,0,0,1.287-.027,1.018,1.018,0,0,0,.433-.418l.418.163a1.3,1.3,0,0,1-.579.6,2.033,2.033,0,0,1-1.852.018,1.588,1.588,0,0,1-.624-.6,1.671,1.671,0,0,1-.229-.863,1.649,1.649,0,0,1,.209-.826,1.5,1.5,0,0,1,.582-.577,1.7,1.7,0,0,1,.841-.209,1.582,1.582,0,0,1,.812.2Z" transform="translate(-125.583 -20.452)" fill-rule="evenodd"/>
        <path id="Fill-48" d="M193,29.125h.448l.046.463a1.172,1.172,0,0,1,.475-.432,1.409,1.409,0,0,1,.65-.156,1.384,1.384,0,0,1,.717.181,1.256,1.256,0,0,1,.478.494,1.492,1.492,0,0,1,.17.716v1.889h-.5V30.394a1.086,1.086,0,0,0-.11-.494.819.819,0,0,0-.32-.34.939.939,0,0,0-.487-.125,1.086,1.086,0,0,0-.53.135,1.044,1.044,0,0,0-.386.37.976.976,0,0,0-.146.528V32.28h-.495Z" transform="translate(-135.406 -20.453)" fill-rule="evenodd"/>
        <g id="Group-52" transform="translate(60.382 7.412)">
          <path id="Fill-50" d="M1.637,4.72a.974.974,0,0,1-.391-.368,1.048,1.048,0,0,1-.137-.541V1.752H.341V1.328h.768V.322L1.635.2V1.328H3.2v.424H1.634v2a.666.666,0,0,0,.17.473.582.582,0,0,0,.452.185.724.724,0,0,0,.485-.185.787.787,0,0,0,.264-.5l.429.175a1.044,1.044,0,0,1-.418.692,1.313,1.313,0,0,1-.806.265,1.208,1.208,0,0,1-.572-.138" transform="translate(-0.341 -0.2)" fill-rule="evenodd"/>
        </g>
        <path id="Fill-53" d="M78,53.476h.6V49H78Z" transform="translate(-54.724 -34.486)" fill-rule="evenodd"/>
        <path id="Fill-55" d="M82,53.125h.449l.046.463a1.166,1.166,0,0,1,.475-.431A1.407,1.407,0,0,1,83.623,53a1.388,1.388,0,0,1,.714.182,1.258,1.258,0,0,1,.479.494,1.484,1.484,0,0,1,.167.716v1.891h-.5V54.391a1.076,1.076,0,0,0-.112-.494.81.81,0,0,0-.319-.341.95.95,0,0,0-.489-.125,1.089,1.089,0,0,0-.53.133,1.059,1.059,0,0,0-.386.371.981.981,0,0,0-.147.529v1.815H82Z" transform="translate(-57.53 -37.292)" fill-rule="evenodd"/>
        <path id="Fill-56" d="M94.818,56.14a1.493,1.493,0,0,1-.559-.369,1,1,0,0,1-.26-.535l.494-.09a.64.64,0,0,0,.165.37.941.941,0,0,0,.39.255,1.482,1.482,0,0,0,.53.09,1.513,1.513,0,0,0,.47-.069.829.829,0,0,0,.329-.192.388.388,0,0,0,.122-.274.305.305,0,0,0-.13-.255.919.919,0,0,0-.328-.151c-.13-.033-.3-.069-.506-.1a6.521,6.521,0,0,1-.7-.151,1.11,1.11,0,0,1-.457-.255.643.643,0,0,1-.187-.49.752.752,0,0,1,.161-.469,1.091,1.091,0,0,1,.44-.331A1.593,1.593,0,0,1,95.415,53a1.725,1.725,0,0,1,.627.108,1.319,1.319,0,0,1,.47.3.9.9,0,0,1,.246.429l-.479.119a.558.558,0,0,0-.274-.4,1.067,1.067,0,0,0-.595-.157.964.964,0,0,0-.371.07.66.66,0,0,0-.266.186.391.391,0,0,0-.1.261.28.28,0,0,0,.13.247.805.805,0,0,0,.233.119c.066.015.273.052.618.108a5.174,5.174,0,0,1,.682.167,1.236,1.236,0,0,1,.464.271.615.615,0,0,1,.184.46.785.785,0,0,1-.184.508,1.234,1.234,0,0,1-.5.356,1.894,1.894,0,0,1-.719.13,2.021,2.021,0,0,1-.757-.142" transform="translate(-65.949 -37.292)" fill-rule="evenodd"/>
        <path id="Fill-57" d="M105.253,54.345a.925.925,0,0,1-.379-.358,1.023,1.023,0,0,1-.132-.52V51.491H104v-.4h.741v-.969l.508-.117v1.086h1.5v.407h-1.5v1.924a.643.643,0,0,0,.163.455.566.566,0,0,0,.438.177.693.693,0,0,0,.467-.177.762.762,0,0,0,.254-.482l.414.167a1,1,0,0,1-.4.665,1.261,1.261,0,0,1-.778.255,1.149,1.149,0,0,1-.549-.132" transform="translate(-72.965 -35.187)" fill-rule="evenodd"/>
        <path id="Fill-58" d="M115.133,49.383h.6v3.392h-.6Zm-.011-.741a.339.339,0,0,1-.125-.273.332.332,0,0,1,.125-.265.481.481,0,0,1,.321-.1.5.5,0,0,1,.323.1.33.33,0,0,1,.125.265.337.337,0,0,1-.125.273.5.5,0,0,1-.325.1.48.48,0,0,1-.318-.1Z" transform="translate(-80.68 -33.784)" fill-rule="evenodd"/>
        <path id="Fill-59" d="M119.253,54.349a.926.926,0,0,1-.379-.358,1.019,1.019,0,0,1-.132-.521V51.492H118v-.406h.741v-.969l.508-.117v1.086h1.511v.407h-1.513V53.42a.645.645,0,0,0,.163.455.565.565,0,0,0,.438.178.693.693,0,0,0,.467-.178.763.763,0,0,0,.254-.482l.414.163a1.007,1.007,0,0,1-.4.666,1.266,1.266,0,0,1-.779.255,1.146,1.146,0,0,1-.547-.128" transform="translate(-82.787 -35.187)" fill-rule="evenodd"/>
        <path id="Fill-60" d="M129.652,57.1a1.233,1.233,0,0,1-.481-.494,1.5,1.5,0,0,1-.167-.722V54h.5v1.889a1.048,1.048,0,0,0,.113.494.866.866,0,0,0,.323.34.933.933,0,0,0,.49.125,1.065,1.065,0,0,0,.525-.135,1.047,1.047,0,0,0,.387-.37.969.969,0,0,0,.147-.528V54h.5v3.158h-.45l-.053-.463a1.122,1.122,0,0,1-.473.432,1.427,1.427,0,0,1-.644.155,1.408,1.408,0,0,1-.714-.178" transform="translate(-90.507 -37.994)" fill-rule="evenodd"/>
        <path id="Fill-61" d="M141.25,54.349a.929.929,0,0,1-.376-.358,1.019,1.019,0,0,1-.132-.521V51.492H140v-.406h.741v-.969l.508-.117v1.086h1.509v.407h-1.51V53.42a.645.645,0,0,0,.163.455.565.565,0,0,0,.438.178.7.7,0,0,0,.467-.178.764.764,0,0,0,.254-.482l.414.163a1,1,0,0,1-.4.666,1.26,1.26,0,0,1-.778.255,1.154,1.154,0,0,1-.551-.127" transform="translate(-98.222 -35.187)" fill-rule="evenodd"/>
        <path id="Fill-62" d="M152.081,53.543a1.025,1.025,0,0,0-.388.344,1.22,1.22,0,0,0-.2.506h2.172a1.226,1.226,0,0,0-.177-.51.954.954,0,0,0-.366-.34,1.073,1.073,0,0,0-.513-.119,1.157,1.157,0,0,0-.53.119Zm1.353-.338a1.408,1.408,0,0,1,.547.577,1.818,1.818,0,0,1,.2.836V54.7a.572.572,0,0,1-.008.093h-2.682a1.161,1.161,0,0,0,.2.559,1.149,1.149,0,0,0,.45.38,1.462,1.462,0,0,0,1.286-.028,1.015,1.015,0,0,0,.433-.416l.418.162a1.305,1.305,0,0,1-.579.6,2.037,2.037,0,0,1-1.852.019,1.588,1.588,0,0,1-.624-.6A1.671,1.671,0,0,1,151,54.61a1.639,1.639,0,0,1,.209-.826,1.487,1.487,0,0,1,.582-.575,1.689,1.689,0,0,1,.841-.209,1.573,1.573,0,0,1,.8.206Z" transform="translate(-105.939 -37.292)" fill-rule="evenodd"/>
        <path id="Fill-63" d="M163.872,62.066a.517.517,0,0,0,.192-.192.578.578,0,0,0,0-.551.513.513,0,0,0-.192-.2.552.552,0,0,0-.273-.07.543.543,0,0,0-.278.07.489.489,0,0,0-.193.193.582.582,0,0,0,0,.553.5.5,0,0,0,.193.192.561.561,0,0,0,.278.068.547.547,0,0,0,.273-.069m-.585.051a.559.559,0,0,1-.213-.213A.592.592,0,0,1,163,61.6a.609.609,0,0,1,.078-.307.578.578,0,0,1,.213-.213A.609.609,0,0,1,163.6,61a.6.6,0,0,1,.305.076.575.575,0,0,1,.213.215.627.627,0,0,1,.076.307.617.617,0,0,1-.076.306.559.559,0,0,1-.213.213.6.6,0,0,1-.305.076.612.612,0,0,1-.309-.076" transform="translate(-114.357 -42.904)" fill-rule="evenodd"/>
        <path id="Fill-64" d="M164.119,62.266v-.2h.174a.26.26,0,0,1,.125.027.08.08,0,0,1,.048.072.077.077,0,0,1-.047.071.251.251,0,0,1-.123.027Zm.477.321-.2-.253a.313.313,0,0,0,.064-.016.167.167,0,0,0,.129-.152.131.131,0,0,0-.031-.084.209.209,0,0,0-.09-.059.37.37,0,0,0-.132-.023H164v.59h.119v-.246h.151l.193.253Z" transform="translate(-115.06 -43.606)" fill-rule="evenodd"/>
      </g>
    </g>
  </g>
</svg>
