<svg xmlns="http://www.w3.org/2000/svg" width="22.667" height="27.307" viewBox="0 0 22.667 27.307">
  <g id="reading-book" transform="translate(0 0.397)">
    <circle id="Ellipse_93" data-name="Ellipse 93" cx="4.5" cy="4.5" r="4.5" transform="translate(6.667 -0.397)" fill="#336799"/>
    <path id="Path_1720" data-name="Path 1720" d="M148.612,181.515a6.05,6.05,0,0,1-6.585,0,9.216,9.216,0,0,0-2.867,1.751l6.159,2.31,6.159-2.31a9.215,9.215,0,0,0-2.866-1.751Z" transform="translate(-133.987 -172.026)" fill="#336799"/>
    <path id="Path_1721" data-name="Path 1721" d="M412.318,310h-.527a.791.791,0,0,0-.791.791V312.9a.791.791,0,0,0,.791.791h.527a1.845,1.845,0,1,0,0-3.69Z" transform="translate(-391.496 -293.738)" fill="#336799"/>
    <path id="Path_1722" data-name="Path 1722" d="M81.34,231.745a.791.791,0,0,0-.34.65v1.76h.264a2.375,2.375,0,0,1,2.372,2.372v2.108a2.375,2.375,0,0,1-2.372,2.372H81v1.666a.791.791,0,0,0,.513.74l7.921,2.97V234.416l-7.366-2.762a.79.79,0,0,0-.728.091Z" transform="translate(-78.891 -219.474)" fill="#336799"/>
    <path id="Path_1723" data-name="Path 1723" d="M276.8,238.635v-2.108a2.375,2.375,0,0,1,2.372-2.372h.264V232.4a.791.791,0,0,0-1.068-.74L271,234.416v11.968l7.921-2.97a.791.791,0,0,0,.513-.74v-1.666h-.264A2.375,2.375,0,0,1,276.8,238.635Z" transform="translate(-258.876 -219.474)" fill="#336799"/>
    <path id="Path_1724" data-name="Path 1724" d="M44.163,312.9v-2.109a.791.791,0,0,0-.791-.791h-.527a1.845,1.845,0,0,0,0,3.69h.527A.791.791,0,0,0,44.163,312.9Z" transform="translate(-41 -293.738)" fill="#336799"/>
  </g>
</svg>
