<svg xmlns="http://www.w3.org/2000/svg" width="48.284" height="55.705" viewBox="0 0 48.284 55.705">
  <g id="salary" transform="translate(0.001)">
    <path id="Path_1725" data-name="Path 1725" d="M230.46,0,216.272,22.588h5.6V44.319h17.255V22.588h5.609Z" transform="translate(-196.453)" fill="#00264c"/>
    <path id="Path_1726" data-name="Path 1726" d="M130.471,149.422a17.515,17.515,0,0,0-4.644-8.268,16.226,16.226,0,0,0-4.362-3.086,18.641,18.641,0,0,0,2.227-12.851l-.288-1.444h-17.31l-.289,1.444a18.641,18.641,0,0,0,2.227,12.852,16.23,16.23,0,0,0-4.362,3.086,17.513,17.513,0,0,0-4.644,8.268,19,19,0,0,0,.129,9.617l1.924,6.972h27.339l1.924-6.972A19,19,0,0,0,130.471,149.422Z" transform="translate(-91.468 -110.307)" fill="#00264c"/>
    <path id="Path_1727" data-name="Path 1727" d="M264.1,149.422a17.514,17.514,0,0,0-4.644-8.268,16.226,16.226,0,0,0-4.362-3.086,18.641,18.641,0,0,0,2.227-12.851l-.288-1.444h-8.62v42.238h13.634l1.924-6.972a19,19,0,0,0,.129-9.617Z" transform="translate(-225.096 -110.307)" fill="#cb4500"/>
    <path id="Path_1728" data-name="Path 1728" d="M65.4,172.889H52.083a11.754,11.754,0,0,1-10.349-7.123l-3,1.285a15.011,15.011,0,0,0,4.962,6.227,13.982,13.982,0,0,0-9.589,8.1l3,1.285a10.725,10.725,0,0,1,9.869-6.508H65.4v-3.263Z" transform="translate(-34.108 -147.731)" fill="#00264c"/>
    <rect id="Rectangle_163" data-name="Rectangle 163" width="8.007" height="3.263" transform="translate(23.28 25.158)" fill="#56412d"/>
    <path id="Path_1729" data-name="Path 1729" d="M211.352,324.383v1.63h-2.07v-1.556a8.641,8.641,0,0,1-3.773-1.028l1.116-2.526a7.05,7.05,0,0,0,3.392.94c.984,0,1.336-.206,1.336-.558,0-1.292-5.682-.25-5.682-4.082,0-1.659,1.2-3.054,3.612-3.392v-1.6h2.07v1.571a7.669,7.669,0,0,1,2.981.852l-1.042,2.511a6.342,6.342,0,0,0-2.863-.764c-1.013,0-1.336.294-1.336.646,0,1.233,5.682.206,5.682,3.994C214.773,322.607,213.628,323.987,211.352,324.383Z" transform="translate(-186.86 -278.244)" fill="#fff8d5"/>
    <g id="Group_729" data-name="Group 729" transform="translate(23.28 33.967)">
      <path id="Path_1730" data-name="Path 1730" d="M248.088,362.459v2.884c.707.161,1.211.339,1.211.723,0,.337-.325.538-1.211.556v4.172H249.3v-1.63c2.276-.4,3.421-1.777,3.421-3.362C252.72,363.053,249.73,362.84,248.088,362.459Z" transform="translate(-248.088 -356.992)" fill="#ffe981"/>
      <path id="Path_1731" data-name="Path 1731" d="M249.3,313.782v-1.571h-1.211v4.18c.089-.006.183-.01.286-.01a6.34,6.34,0,0,1,2.863.764l1.042-2.511a7.667,7.667,0,0,0-2.98-.852Z" transform="translate(-248.088 -312.211)" fill="#ffe981"/>
    </g>
  </g>
</svg>
