<svg xmlns="http://www.w3.org/2000/svg" width="30.883" height="32.941" viewBox="0 0 30.883 32.941">
  <g id="salary-potential" transform="translate(-8)">
    <path id="Path_1532" data-name="Path 1532" d="M134.014,14.014V8.789l-5.225,5.225Zm0,0" transform="translate(-120.503 -8.224)" fill="#42139b"/>
    <path id="Path_1533" data-name="Path 1533" d="M127.721,7.72H120v3.958A6.724,6.724,0,0,1,122.695,24a8.689,8.689,0,0,1,4.492,4.954h15.975V0H127.721ZM139.3,25.092H127.721v-1.93H139.3Zm0-3.86H127.721V19.3H139.3Zm-4.825-9.651a2.888,2.888,0,0,1-.965-5.613V3.86h1.93V5.968a2.891,2.891,0,0,1,1.93,2.718h-1.93a.965.965,0,1,0-.965.965,2.888,2.888,0,0,1,.965,5.613v2.108h-1.93V15.263a2.891,2.891,0,0,1-1.93-2.718h1.93a.965.965,0,1,0,.965-.965Zm0,0" transform="translate(-104.279)" fill="#00264c"/>
    <path id="Path_1534" data-name="Path 1534" d="M39.651,214.825A4.825,4.825,0,1,1,34.826,210a4.825,4.825,0,0,1,4.825,4.825Zm0,0" transform="translate(-20.07 -196.489)" fill="#00264c"/>
    <path id="Path_1535" data-name="Path 1535" d="M6.756,390A6.811,6.811,0,0,0,0,396.82v1.029H13.511V396.82A6.811,6.811,0,0,0,6.756,390Zm0,0" transform="translate(8 -364.908)" fill="#00264c"/>
  </g>
</svg>
