<svg xmlns="http://www.w3.org/2000/svg" width="32.501" height="36.112" viewBox="0 0 32.501 36.112">
  <g id="security" transform="translate(-25.12)">
    <path id="Path_1536" data-name="Path 1536" d="M132.881,193.75a17.2,17.2,0,0,0,3.143-8.13l-9.666-2.748-9.666,2.748a17.2,17.2,0,0,0,3.143,8.13,17.429,17.429,0,0,0,6.523,5.5,17.429,17.429,0,0,0,6.523-5.5Z" transform="translate(-84.989 -169.722)" fill="#00264c"/>
    <path id="Path_1537" data-name="Path 1537" d="M124.9,93.788l9.779,2.781V92.084L124.9,89.3l-9.779,2.781v4.485Z" transform="translate(-83.529 -82.882)" fill="#00264c"/>
    <path id="Path_1538" data-name="Path 1538" d="M266.12,0V4.485l10.857,3.087V13.9a19.379,19.379,0,0,1-3.662,11.386,19.594,19.594,0,0,1-7.2,6.115v4.71A23.844,23.844,0,0,0,281.292,13.9V4.314Z" transform="translate(-223.671)" fill="#00264c"/>
    <path id="Path_1539" data-name="Path 1539" d="M40.292,31.4a19.592,19.592,0,0,1-7.2-6.115A19.379,19.379,0,0,1,29.434,13.9V7.573L40.292,4.485V0L25.12,4.314V13.9A23.844,23.844,0,0,0,40.293,36.112Z" fill="#00264c"/>
  </g>
</svg>
