<svg xmlns="http://www.w3.org/2000/svg" width="33.521" height="33.522" viewBox="0 0 33.521 33.522">
  <g id="self-placed" transform="translate(0 -0.001)">
    <g id="Group_723" data-name="Group 723" transform="translate(0.559 0.56)">
      <path id="Path_1661" data-name="Path 1661" d="M35.4,53v2.235a2.235,2.235,0,0,1-2.235,2.235H5.235A2.235,2.235,0,0,1,3,55.235V53H13.615v1.117a1.121,1.121,0,0,0,1.117,1.117h8.939a1.121,1.121,0,0,0,1.117-1.117V53Z" transform="translate(-3 -25.065)" fill="#ebe1ff"/>
      <path id="Path_1662" data-name="Path 1662" d="M34.348,25V37.291H12V25h2.235v8.939l8.939,1.117,8.939-1.117V25Z" transform="translate(-6.972 -12.709)" fill="#ebe1ff"/>
      <path id="Path_1663" data-name="Path 1663" d="M34.113,6.352l-2.235.5L24.056,8.587,16.235,6.849,14,6.352,24.056,3Z" transform="translate(-7.854 -3)" fill="#ebe1ff"/>
    </g>
    <path id="Path_1664" data-name="Path 1664" d="M34.963,29.934H33.287V11.5a2.793,2.793,0,0,0-2.794-2.8H27.141V6.854l1.8-.4A.559.559,0,0,0,29,5.379L18.94,2.027a.559.559,0,0,0-.358,0L8.526,5.379a.559.559,0,0,0,.056,1.078l1.8.4V8.7H7.028a2.793,2.793,0,0,0-2.793,2.8V29.934H2.559A.559.559,0,0,0,2,30.492v2.235A2.793,2.793,0,0,0,4.793,35.52H32.728a2.793,2.793,0,0,0,2.793-2.793V30.492A.559.559,0,0,0,34.963,29.934Zm-16.2-26.79L26.728,5.8,18.761,7.575,10.794,5.8Zm7.263,3.961v3.833H11.5V7.105l7.14,1.587a.682.682,0,0,0,.246,0ZM5.352,11.5A1.681,1.681,0,0,1,7.028,9.821H10.38V11.5a.559.559,0,0,0,.559.559H26.583a.559.559,0,0,0,.559-.559V9.821h3.352A1.681,1.681,0,0,1,32.169,11.5V29.934H5.352ZM23.789,31.051v.559a.559.559,0,0,1-.559.559H14.291a.559.559,0,0,1-.559-.559v-.559ZM34.4,32.727A1.681,1.681,0,0,1,32.728,34.4H4.793a1.681,1.681,0,0,1-1.676-1.676V31.051h9.5v.559a1.681,1.681,0,0,0,1.676,1.676H23.23a1.681,1.681,0,0,0,1.676-1.676v-.559h9.5Z" transform="translate(-2 -1.997)" fill="#00264c"/>
    <path id="Path_1665" data-name="Path 1665" d="M33.906,23.118H32.23v-.559a.548.548,0,0,0-.19-.419.541.541,0,0,0-.436-.134l-8.872,1.106L13.86,22.006a.541.541,0,0,0-.436.134.548.548,0,0,0-.19.419v.559H11.559a.559.559,0,0,0-.559.559V35.968a.559.559,0,0,0,.559.559H33.906a.559.559,0,0,0,.559-.559V23.677A.559.559,0,0,0,33.906,23.118Zm-10.615,1.05,7.822-.978v8.934l-7.822.978Zm-8.939-.978,7.822.978V33.1l-7.822-.978Zm19,12.219H12.117V24.235h1.117v8.38a.559.559,0,0,0,.492.553l8.939,1.117a.405.405,0,0,0,.134,0l8.939-1.117a.559.559,0,0,0,.492-.553v-8.38h1.117Z" transform="translate(-5.972 -10.825)" fill="#00264c"/>
  </g>
</svg>
