<svg xmlns="http://www.w3.org/2000/svg" width="361.062" height="39.301" viewBox="0 0 361.062 39.301">
  <g id="getmypathlogo" transform="translate(0 -0.014)">
    <path id="Path_3" data-name="Path 3" d="M762.257,22.864a2.7,2.7,0,0,0,.625.254,2.226,2.226,0,0,1,.738.334,5.138,5.138,0,0,1,.825,1.236q1.133,2.055,3.274,7.193l3.812,8.536a47.8,47.8,0,0,1-2.316,5.011.618.618,0,0,1-.555.4,1.671,1.671,0,0,1-.932-.481,3.566,3.566,0,0,0-2.168-.986,2.859,2.859,0,0,0-1.279.545,3.006,3.006,0,0,0-.972,2.138,1.62,1.62,0,0,0,.434,1.066,2.873,2.873,0,0,0,1.467.9c.688.1,1.066.147,1.136.147a5.169,5.169,0,0,0,1.921-.334,2.672,2.672,0,0,0,.909-.668,11.7,11.7,0,0,0,1.838-2.743l2.382-5.536,3.455-8.352,1.493-4.046q1.072-2.673,1.427-3.481a1.8,1.8,0,0,1,.4-.418c.371-.11.8-.231,1.3-.354a3.528,3.528,0,0,0,.825-.291c0-.164.024-.287.024-.371a5.838,5.838,0,0,0-.044-.785c-.357,0-.9.063-1.61.147a23.338,23.338,0,0,1-2.436.207l-1.119-.04-1.671-.107c-.18,0-.478.017-.889.043a3.442,3.442,0,0,0-.063.535,2,2,0,0,0,.02.307l.063.291.668.167a9.123,9.123,0,0,1,1.336.221,2.965,2.965,0,0,1,.719.448,3.2,3.2,0,0,1,.124.692,2.267,2.267,0,0,1-.08.548q-.144.588-1.9,5.182-1.467,3.886-1.59,4.136l-1.159-2.416q-1.236-2.476-2.416-5.416l-1-2.055a7.849,7.849,0,0,1-.247-.839.424.424,0,0,1,.334-.294,4.577,4.577,0,0,1,.5-.094c.164-.033.384-.074.7-.117a2.906,2.906,0,0,0,.474-.084c.027-.167.064-.558.1-1.173a2,2,0,0,0-.287-.271l-2.937.187h-1.072q-1.176,0-3.057-.124c-.207,0-.394-.023-.558-.023a7.621,7.621,0,0,0-1.2.124c.057.287.117.588.187.9M728.265,37.989c.027.294.053.551.08.775l.6.02q2.3-.21,3.906-.21l2.252.02q1.838.17,2.065.17a4.156,4.156,0,0,0,.474-.023,2.711,2.711,0,0,0,.167-.772,3.646,3.646,0,0,0-.064-.5A4.755,4.755,0,0,0,736.6,37.1a8.552,8.552,0,0,1-.982-.264l-.1-.314a3.47,3.47,0,0,1-.06-.545l-.023-3.144-.06-6.014a2.181,2.181,0,0,0,.124-.585v-.2l-.04-.21a3.734,3.734,0,0,1,.02-.374q.184-.631,1.427-1.437a5.248,5.248,0,0,1,2.923-.805,3.786,3.786,0,0,1,2.2.638,2.96,2.96,0,0,1,1.209,1.644,19.956,19.956,0,0,1,.227,4.043l-.06,1.133.02,4.25a8.651,8.651,0,0,1-.1,1.7,1.153,1.153,0,0,1-.264.461,1.928,1.928,0,0,1-.27.084,13.075,13.075,0,0,0-2.232.294l.04,1.256.368.063q1.984-.19,2.786-.19l2.205.043c1.046,0,2.055.07,3.034.167l.431.023h1.423a2.774,2.774,0,0,0,.084-.508,2.609,2.609,0,0,0-.167-.765l-.638-.21a3.847,3.847,0,0,1-2.025-.568q-.271-.251-.271-1.634l.02-1.864V31.18l.043-2.2-.063-2.673.043-.608a6.3,6.3,0,0,1,2.125-2,4.874,4.874,0,0,1,2.355-.668,3.2,3.2,0,0,1,2.512,1.266,4.011,4.011,0,0,1,.608,1.527,13,13,0,0,1,.227,2.456l.1,5.9a15.049,15.049,0,0,1-.1,2.238,1,1,0,0,1-.311.481c-1,.384-1.6.621-1.774.718l-.023.291a3.418,3.418,0,0,0,.144.835q1.837-.19,4.958-.19a19.268,19.268,0,0,1,2.118.1c.558.06.892.094,1,.094a5.367,5.367,0,0,0,.825-.107l.023-.424a4.552,4.552,0,0,1-.1-.638,2.088,2.088,0,0,0-.785-.287,6.262,6.262,0,0,1-1.387-.451,1.527,1.527,0,0,1-.247-.815v-1.6c.04-1.671.063-2.853.063-3.535V27.571a6.746,6.746,0,0,0-1.67-4.814A5.875,5.875,0,0,0,753.988,21a9.167,9.167,0,0,0-2.242.3,7.41,7.41,0,0,0-1.868.7,14.1,14.1,0,0,0-2.459,2,5.928,5.928,0,0,0-2.536-2.375,7.326,7.326,0,0,0-3.151-.712,8.3,8.3,0,0,0-3.007.5,13.213,13.213,0,0,0-3.274,2.075l-.043-.378.02-.775-.06-1.671v-.334h-1.136a7.477,7.477,0,0,1-1.878,1.687,10.325,10.325,0,0,1-3.141,1.129c-.357.084-.668.16-.929.231v.859a6.41,6.41,0,0,1,2.339,1,2.068,2.068,0,0,1,.428,1.457v.5l.023,2.238-.023,2.152v1.213q-.08,3.6-.114,3.809a.307.307,0,0,1-.174.271,5.288,5.288,0,0,1-1.941.441,1.249,1.249,0,0,0-.454.1,2.115,2.115,0,0,0-.1.545M720.791,26.8c-.167,0-.448.02-.849.057-.551.043-.976.063-1.28.063l-4.711-.043a5.366,5.366,0,0,1,1.26-3.341,3.144,3.144,0,0,1,4.343-.635,3.553,3.553,0,0,1,1.336,1.67,6.3,6.3,0,0,1,.454,2.255h-.558m-11.73,4.183a8.766,8.766,0,0,0,.514,2.556,8.941,8.941,0,0,0,1.2,2.369,7.649,7.649,0,0,0,1.921,1.931,7.992,7.992,0,0,0,2.5,1.153,9.933,9.933,0,0,0,2.673.294,10.184,10.184,0,0,0,4.367-.912A11.851,11.851,0,0,0,726,35.473q-.5-.438-1.24-.982a10.175,10.175,0,0,1-1.831,1.1,9.206,9.206,0,0,1-1.744.535,13.647,13.647,0,0,1-2.128.1l-1.2-.4a5.162,5.162,0,0,1-1.644-.966,6.1,6.1,0,0,1-1.336-1.607,7.558,7.558,0,0,1-.8-2.162,11.128,11.128,0,0,1-.267-2.339,3.726,3.726,0,0,1,.04-.5h1.777l2.232-.043c.3,0,.852.037,1.651.1q3.224.184,4.173.184l2.3.04a8.1,8.1,0,0,0-.488-2.74,6.975,6.975,0,0,0-1.146-1.968,9.823,9.823,0,0,0-1.858-1.67,6.147,6.147,0,0,0-2-.869,13.3,13.3,0,0,0-3.141-.3,8.252,8.252,0,0,0-2.212.4,7.977,7.977,0,0,0-2.365,1.3,10.648,10.648,0,0,0-2.472,2.673,9.488,9.488,0,0,0-.949,2.369,17.05,17.05,0,0,0-.287,3.294M692.3,34.547a8.293,8.293,0,0,1-1.423-5.219,9.808,9.808,0,0,1,.535-3.054,6.435,6.435,0,0,1,1.159-2.091,3.32,3.32,0,0,1,1.336-.962,4.5,4.5,0,0,1,1.727-.334,3.956,3.956,0,0,1,2.706.982,4.4,4.4,0,0,1,1.363,2.806q.187,1.363.184,8.018,0,.17-.02.862a9.026,9.026,0,0,1-1.647.835,4.233,4.233,0,0,1-1.457.287,5.189,5.189,0,0,1-.745-.04,5.382,5.382,0,0,1-3.718-2.081m-6.485-4.55a11.337,11.337,0,0,0,.875,4.5,7.912,7.912,0,0,0,3.174,3.518,7.554,7.554,0,0,0,4.153,1,9.3,9.3,0,0,0,2.6-.334,10.464,10.464,0,0,0,2.522-1.173c.3-.184.558-.334.765-.444a16.673,16.673,0,0,1,.06,1.838c0,.07,0,.231-.02.484a3.853,3.853,0,0,0,.514.043,2.048,2.048,0,0,0,.8-.334,12.515,12.515,0,0,1,4.029-1,14.362,14.362,0,0,0,1.777-.311,1.773,1.773,0,0,0,.144-.568,1.654,1.654,0,0,0-.1-.461,4.217,4.217,0,0,0-.8-.1,5,5,0,0,1-1.818-.334q-.041-1.05-.04-1.8V32.96c0-.194,0-.411-.02-.648-.027-.588-.043-1.243-.043-1.968s.017-1.273.043-1.67l.02-.441V27.077a8.718,8.718,0,0,1-.063-.9c0-.11,0-.281.02-.5V24.9c0-.154-.02-.334-.02-.525,0-1.2.017-2.081.043-2.639l.03-1.28-.064-2.178.023-1.046-.023-.608v-1.13q-.06-2.536-.06-3.124V12l.02-.311a2.676,2.676,0,0,0-.124-.651A2.119,2.119,0,0,0,703.9,11a5.168,5.168,0,0,0-.765.147l-2.015.471-.7.147a14.188,14.188,0,0,1-2.419.428,3.61,3.61,0,0,0-1,.137v1a3.34,3.34,0,0,0,1.253.274,1.2,1.2,0,0,1,1.083.6q.535.942.538,4.484l-.083,2.242v1.423l-.04.5a7.043,7.043,0,0,0-4.3-1.587H694.3a12.783,12.783,0,0,0-2.673.481,7.718,7.718,0,0,0-1.951,1.026A8.922,8.922,0,0,0,685.83,30m-9.462,1.888a13.491,13.491,0,0,1-.187,3.027,4.065,4.065,0,0,1-1.279,1.433,2.967,2.967,0,0,1-1.965.668,1.64,1.64,0,0,1-1.239-.585,2.115,2.115,0,0,1-.535-1.487,3.235,3.235,0,0,1,.414-1.7,6.275,6.275,0,0,1,2.055-1.874,12.65,12.65,0,0,1,2.653-1.336q.086.923.084,1.844m6.321,3.167-.621,1a.612.612,0,0,1-.384.127.7.7,0,0,1-.6-.334,2.184,2.184,0,0,1-.234-1.2V33.98l-.044-2.536.03-3.444a13.855,13.855,0,0,0-.468-4.377,3.371,3.371,0,0,0-1.637-1.834,6.093,6.093,0,0,0-2.843-.615,13.964,13.964,0,0,0-4.343.585,10.581,10.581,0,0,0-2.8,1.6A8.951,8.951,0,0,0,666.5,25.7a4.074,4.074,0,0,0-.495,2.051.9.9,0,0,0,.291.715,4.45,4.45,0,0,0,1.778-.545c.19-.1.561-.257,1.1-.471a2.65,2.65,0,0,0,1.126-.725,3.133,3.133,0,0,0,.271-1.066,5.17,5.17,0,0,1,.494-1.741,2.82,2.82,0,0,1,1.26-1.026,4.527,4.527,0,0,1,1.9-.4,1.6,1.6,0,0,1,1.447.628,7.708,7.708,0,0,1,.668,3.856c0,.545-.02,1.079-.063,1.61l-5.135,2.125q-1.336.588-1.57.712a9.508,9.508,0,0,0-2.158,1.54,4.752,4.752,0,0,0-.972,1.413,3.6,3.6,0,0,0-.3,1.4,3.074,3.074,0,0,0,1,2.4,4.6,4.6,0,0,0,3.164.912,8.807,8.807,0,0,0,3.946-.805,5.754,5.754,0,0,0,2.5-2.4,5.88,5.88,0,0,0,1.6,2.4,3.341,3.341,0,0,0,2.1.668,2.937,2.937,0,0,0,2-.7,5.116,5.116,0,0,0,1.3-2.566l-.023-.1a.574.574,0,0,0-.227-.357l-.475-.314Zm-21.743-.692a7.5,7.5,0,0,1-.855.9,6.876,6.876,0,0,1-1.39.819,6.478,6.478,0,0,1-2,.271,5.611,5.611,0,0,1-4.243-2.065,7.964,7.964,0,0,1-1.871-5.559,6.586,6.586,0,0,1,1.53-4.6,4.592,4.592,0,0,1,3.471-1.687,2.315,2.315,0,0,1,1.383.418,3.137,3.137,0,0,1,.949,1.4,4.155,4.155,0,0,0,1.189,1.908,2.445,2.445,0,0,0,1.56.565,1.964,1.964,0,0,0,1.557-.638,2.523,2.523,0,0,0,.568-1.747,3.074,3.074,0,0,0-1.4-2.265q-1.4-1.133-4.978-1.129a11.65,11.65,0,0,0-4.677.9,9.688,9.688,0,0,0-3.438,2.429,9.324,9.324,0,0,0-1.955,3.257,9.793,9.793,0,0,0-.578,3.087,10.128,10.128,0,0,0,.458,2.75,7.351,7.351,0,0,0,1.393,2.723,8.484,8.484,0,0,0,3.224,2.339,10.2,10.2,0,0,0,4.089.879,9.145,9.145,0,0,0,5.432-1.53,6.511,6.511,0,0,0,2.706-3.622,2.263,2.263,0,0,0-.765-.525,4.161,4.161,0,0,1-.494-.254c-.154.17-.438.5-.859,1M636.28,31.908a13.481,13.481,0,0,1-.187,3.027,4.064,4.064,0,0,1-1.28,1.433,2.967,2.967,0,0,1-1.965.668,1.637,1.637,0,0,1-1.24-.585,2.114,2.114,0,0,1-.534-1.487,3.267,3.267,0,0,1,.411-1.7,6.31,6.31,0,0,1,2.055-1.908,12.739,12.739,0,0,1,2.673-1.336c.053.615.083,1.229.083,1.844m6.3,3.167-.621,1a.612.612,0,0,1-.384.127.715.715,0,0,1-.6-.334,2.191,2.191,0,0,1-.231-1.2v-.658l-.043-2.536.024-3.43a13.854,13.854,0,0,0-.468-4.377,3.38,3.38,0,0,0-1.634-1.834,6.114,6.114,0,0,0-2.843-.615,13.965,13.965,0,0,0-4.343.585,10.529,10.529,0,0,0-2.8,1.6,8.9,8.9,0,0,0-2.242,2.339,4.072,4.072,0,0,0-.494,2.051.909.909,0,0,0,.287.715,4.421,4.421,0,0,0,1.777-.545c.194-.1.561-.257,1.106-.471a2.649,2.649,0,0,0,1.126-.725,3.166,3.166,0,0,0,.267-1.066,5.231,5.231,0,0,1,.474-1.724,2.819,2.819,0,0,1,1.26-1.026,4.517,4.517,0,0,1,1.9-.4,1.593,1.593,0,0,1,1.443.628,7.467,7.467,0,0,1,.668,3.856c0,.545-.02,1.079-.063,1.61l-5.112,2.108c-.9.391-1.42.628-1.57.712a9.429,9.429,0,0,0-2.158,1.54,4.629,4.629,0,0,0-.972,1.413,3.6,3.6,0,0,0-.3,1.4,3.074,3.074,0,0,0,1,2.4,4.6,4.6,0,0,0,3.164.912,8.807,8.807,0,0,0,3.946-.8,5.773,5.773,0,0,0,2.5-2.4,5.876,5.876,0,0,0,1.6,2.4,3.34,3.34,0,0,0,2.095.668,2.94,2.94,0,0,0,2-.7,5.17,5.17,0,0,0,1.3-2.566l-.02-.1a.588.588,0,0,0-.227-.357l-.474-.314Z" transform="translate(-421.259 -10.736)" fill="#00264c"/>
    <path id="Path_4" data-name="Path 4" d="M258.765,24.035a4.657,4.657,0,0,1,3.842-1.821,4.223,4.223,0,0,1,2,.451,2.86,2.86,0,0,1,1.27,1.276,3.341,3.341,0,0,1,.414,1.477,1.116,1.116,0,0,1-.371.712,2.6,2.6,0,0,1-1,.167q-5.225.334-6.281.334h-.972a4.272,4.272,0,0,1,1.116-2.6M269.2,27.089a5.743,5.743,0,0,0-.815-2.723,6.281,6.281,0,0,0-2.469-2.429,6.164,6.164,0,0,0-3.141-.712,7.972,7.972,0,0,0-3.117.568,9.612,9.612,0,0,0-2.168,1.4,6.014,6.014,0,0,0-1.467,1.824,12.457,12.457,0,0,0-1.23,3.077,10.8,10.8,0,0,0-.334,2.369,9.524,9.524,0,0,0,1.209,4.951,7.073,7.073,0,0,0,3.314,2.967,7.32,7.32,0,0,0,2.87.611,9.859,9.859,0,0,0,2.315-.19,11.178,11.178,0,0,0,2.893-1.336,9.2,9.2,0,0,0,2.339-2.1,2.6,2.6,0,0,0,.02-.314l-.124-.839-1.487,1.236a9.567,9.567,0,0,1-1.985,1.069,7.574,7.574,0,0,1-1.881.294,6.932,6.932,0,0,1-3.675-1.039A6.188,6.188,0,0,1,258,32.952a8.254,8.254,0,0,1-.8-3.1l.02-1.026v-.21l-.02-.21a3.8,3.8,0,0,1,.187-.859c.668-.057,1.306-.087,1.941-.087h1.57l8.282-.063ZM235.9,44.552a3.6,3.6,0,0,1,1.336-2.806,5.843,5.843,0,0,1,3.946-1.51q.782,0,4.253.274a9.943,9.943,0,0,1,1.881.271,4.451,4.451,0,0,1,1.5.668,3.108,3.108,0,0,1,.9,1.089,2.941,2.941,0,0,1,.334,1.336,3.886,3.886,0,0,1-.939,2.315,5.922,5.922,0,0,1-2.977,1.884,13.127,13.127,0,0,1-4.079.668,7.485,7.485,0,0,1-4.751-1.467,3.566,3.566,0,0,1-1.4-2.723M239,23.459a3.391,3.391,0,0,1,2.977-1.427,3.762,3.762,0,0,1,3.007,1.5,6.7,6.7,0,0,1,1.239,4.366,6.378,6.378,0,0,1-1.186,4.243,3.769,3.769,0,0,1-3,1.383,3.592,3.592,0,0,1-1.961-.618,4.1,4.1,0,0,1-1.53-1.884,7.844,7.844,0,0,1-.558-3.151,7.73,7.73,0,0,1,1-4.42M237.747,40.4a9.256,9.256,0,0,0-3.428,2.563,3.968,3.968,0,0,0-.825,2.045,3.117,3.117,0,0,0,.752,1.908,6.741,6.741,0,0,0,2.553,1.777,12.744,12.744,0,0,0,5.1.819,14.553,14.553,0,0,0,5.309-.9,7.933,7.933,0,0,0,3.448-2.339,4.982,4.982,0,0,0,1.139-3.144,4.885,4.885,0,0,0-.668-2.439,4.263,4.263,0,0,0-1.975-1.814,10,10,0,0,0-3.7-.692q-5.473-.167-7.437-1.236c-.494-.277-.742-.565-.742-.859s.241-.555.752-.889a6.612,6.612,0,0,1,3.491-.966c.384,0,.618.023.7.023a7.176,7.176,0,0,0,3.3-.839,6.591,6.591,0,0,0,3.491-5.509,7.542,7.542,0,0,0-.889-3.288,3.053,3.053,0,0,1,.391-.043,9.769,9.769,0,0,1,1.624.368,8.353,8.353,0,0,0,1.911.368.708.708,0,0,0,.5-.167.668.668,0,0,0,.177-.5,2.934,2.934,0,0,0-.247-1.4,1.487,1.487,0,0,0-.785-.187c-.167,0-.7.057-1.6.177s-1.473.177-1.707.177a2.442,2.442,0,0,1-.742-.1c-.1-.04-.421-.237-.972-.585a9.314,9.314,0,0,0-1.961-1.049,7.818,7.818,0,0,0-2.542-.4,6.816,6.816,0,0,0-5.012,1.938,6.422,6.422,0,0,0-1.954,4.744,6.011,6.011,0,0,0,3.08,5.346c.384.237.668.421.845.545a17.573,17.573,0,0,1-2.208.859,4.5,4.5,0,0,0-1.8.922,1.242,1.242,0,0,0-.311.879,1.7,1.7,0,0,0,.414,1.113,10.023,10.023,0,0,0,1.981,1.527q1.336.565,1.59.692c-.194.114-.545.3-1.052.568M225.5,37a8.773,8.773,0,0,1-2.776.418,5.817,5.817,0,0,1-4.434-1.9,7.218,7.218,0,0,1-1.781-5.112,8.1,8.1,0,0,1,1.647-5.509,5.155,5.155,0,0,1,4.009-1.864,5.543,5.543,0,0,1,3.044.869,3.921,3.921,0,0,1,1.7,1.844,18.481,18.481,0,0,1,.334,4.677q0,4.38-.084,5.78a4.962,4.962,0,0,1-1.67.8m.8-14.119a10.879,10.879,0,0,0-4.587-.839,12.475,12.475,0,0,0-2.449.481,7.11,7.11,0,0,0-1.878.889,7.658,7.658,0,0,0-1.757,1.413,8.389,8.389,0,0,0-1.57,2.733,10.045,10.045,0,0,0-.6,3.448,9.143,9.143,0,0,0,.909,3.936,7.016,7.016,0,0,0,2.6,3.007,6.188,6.188,0,0,0,3.324,1.079,15.134,15.134,0,0,0,5.93-1.383,11.2,11.2,0,0,1,1.1-.421v2a5.951,5.951,0,0,0,1.052-.124l3.007-.588q.681-.126,1.336-.271a2.659,2.659,0,0,0,.017-.314v-.374c-.334-.027-.591-.043-.785-.043a2.761,2.761,0,0,1-1.818-.438c-.137-.127-.2-.668-.2-1.671l.06-4.838-.144-9.091.084-8.065c0-1.173-.03-2.232-.084-3.181l-1.052.02a22.145,22.145,0,0,1-4.834.982,2.671,2.671,0,0,0-.043.461V11.9l.454.127a5.268,5.268,0,0,1,2.419,1.069,4.563,4.563,0,0,1,.411,2.449l-.02,4.631.02,2.449-.02.608c-.19-.07-.474-.2-.845-.378m-25.93,1.176a4.657,4.657,0,0,1,3.842-1.821,4.223,4.223,0,0,1,2,.451,2.86,2.86,0,0,1,1.27,1.276,3.341,3.341,0,0,1,.414,1.477,1.116,1.116,0,0,1-.371.712,2.6,2.6,0,0,1-1,.167q-5.225.334-6.281.334h-.972a4.272,4.272,0,0,1,1.116-2.6m10.411,3.057a5.743,5.743,0,0,0-.815-2.723,6.261,6.261,0,0,0-2.469-2.429,6.164,6.164,0,0,0-3.141-.712,7.972,7.972,0,0,0-3.117.568,9.612,9.612,0,0,0-2.168,1.4,6.014,6.014,0,0,0-1.467,1.824,12.457,12.457,0,0,0-1.229,3.077,10.8,10.8,0,0,0-.334,2.369,9.525,9.525,0,0,0,1.209,4.951,7.059,7.059,0,0,0,3.314,2.967,7.32,7.32,0,0,0,2.89.608,9.86,9.86,0,0,0,2.315-.19,11.179,11.179,0,0,0,2.893-1.336,9.2,9.2,0,0,0,2.345-2.075,2.582,2.582,0,0,0,.017-.314l-.12-.839-1.49,1.236a9.48,9.48,0,0,1-1.981,1.069,7.574,7.574,0,0,1-1.881.294,6.933,6.933,0,0,1-3.675-1.039,6.218,6.218,0,0,1-2.272-2.826,8.306,8.306,0,0,1-.825-3.117l.02-1.026v-.21l-.02-.21a3.8,3.8,0,0,1,.187-.859c.668-.057,1.306-.087,1.941-.087h1.57l8.282-.063ZM187.375,13.167a2.235,2.235,0,0,1,.972.648,1.861,1.861,0,0,1,.227,1.056l-.06,2.452.02,4.985-.063,4.985.023,4.818q0,3.5-.084,4.253a1.059,1.059,0,0,1-.257.7,5.224,5.224,0,0,1-1.55.391,7.59,7.59,0,0,0-1.487.334.364.364,0,0,0-.137.314.371.371,0,0,0,.127.3.645.645,0,0,0,.494.127l3.471-.167,2.706.1,2.168.07a.478.478,0,0,0,.334-.094.448.448,0,0,0,.094-.334.3.3,0,0,0-.167-.294,5.3,5.3,0,0,0-1.5-.294q-1.273-.147-1.517-.521A8.731,8.731,0,0,1,191,34.373q0-.124.06-2.075.107-3.311.1-20.52V10.611h-.976q-2.035.692-3.074,1.026c-.468.14-.892.271-1.28.4V12.5c.277.14.785.364,1.53.668m-31.242,9.09a4.672,4.672,0,0,0,.02.478l.765.127a3.461,3.461,0,0,1,1.24.378,2.829,2.829,0,0,1,.578.8l3.565,7.08L166.2,39.39a3.242,3.242,0,0,0,.431.04,3.746,3.746,0,0,0,.451-.04q1.042-1.627,4.4-8.747c.307.648.641,1.43,1,2.339q1.985,5.2,2.563,6.348a1.3,1.3,0,0,0,.394.084.5.5,0,0,0,.334-.1,1.225,1.225,0,0,0,.257-.441c.09-.224.224-.515.4-.879q1.276-2.6,1.794-3.856l3.675-9a6.477,6.477,0,0,1,1.567-1.9,4.116,4.116,0,0,1,1.59-.471,2.15,2.15,0,0,0,.063-.5.307.307,0,0,0-.053-.207.334.334,0,0,0-.174-.1H183.86c-.538.027-1,.04-1.427.04-.535,0-1.089,0-1.65-.03s-.882-.033-.952-.033l-1.671.02h-.307a.622.622,0,0,0-.231.411.558.558,0,0,0,.1.264,8.54,8.54,0,0,0,1.139.314,3.824,3.824,0,0,1,1.634.631,1.093,1.093,0,0,1,.351.822,5.406,5.406,0,0,1-.6,2.212c-.618,1.336-1.116,2.519-1.483,3.495a54.157,54.157,0,0,1-2.436,5.8q-.518-1.049-1.49-3.675l-2.2-5.9c-.237-.725-.381-1.159-.438-1.3a3.6,3.6,0,0,1-.247-1.153.708.708,0,0,1,.227-.438,5.991,5.991,0,0,1,2.088-.525,2.7,2.7,0,0,0,1.032-.274l.04-.668c-.15,0-.267-.023-.351-.023h-.347c-.137,0-.311.023-.515.023l-2.543-.043-.785.02h-2.583l-1.176-.02a3.425,3.425,0,0,0-.785.127.822.822,0,0,0-.124.354l.02.147a5.012,5.012,0,0,0,1.3.481,4.737,4.737,0,0,1,1.266.474,3.371,3.371,0,0,1,.495,1.079q.321.922.528,1.383l1.266,3.361a61.324,61.324,0,0,1-3.378,6.919L165.151,31.2q-1.8-3.709-2.5-5.346a15.113,15.113,0,0,1-.6-1.487,1.706,1.706,0,0,1-.043-.4.8.8,0,0,1,.351-.692,4.248,4.248,0,0,1,1.787-.354.638.638,0,0,0,.311-.588.354.354,0,0,0-.084-.251.428.428,0,0,0-.311-.084l-7.932-.023c0,.14-.02.247-.02.334m-14.169,13.93a8.56,8.56,0,0,1-1.7-5.77,11.313,11.313,0,0,1,.982-5.235,5.384,5.384,0,0,1,2.4-2.5,6.682,6.682,0,0,1,2.783-.648,5.209,5.209,0,0,1,3.274,1.082,6.3,6.3,0,0,1,2.071,3.237,12.966,12.966,0,0,1,.668,3.789,10.451,10.451,0,0,1-.869,4.39,5.937,5.937,0,0,1-2.339,2.753,5.867,5.867,0,0,1-3.017.865,5.412,5.412,0,0,1-4.253-1.958m-3.675-1.624a8.756,8.756,0,0,0,2.91,3.037,9.251,9.251,0,0,0,4.834,1.363,9.468,9.468,0,0,0,6.869-2.629A8.184,8.184,0,0,0,155.6,30.4a8.941,8.941,0,0,0-2.593-6.451,8.61,8.61,0,0,0-6.455-2.673,10.735,10.735,0,0,0-4.587.889,8.3,8.3,0,0,0-2.542,1.918A8.51,8.51,0,0,0,137.641,27a8.922,8.922,0,0,0-.588,3.047,8.65,8.65,0,0,0,1.219,4.587m-23.591,3.545.04.274h.518l1.961-.023,4.464.063h2.168l.033-.418a.782.782,0,0,0-.558-.421c-.137-.027-.424-.1-.859-.231s-.815-.221-1.146-.291a1.36,1.36,0,0,1-.668-.274.952.952,0,0,1-.144-.461q-.1-.815-.1-4.44l-.06-4.627c0-.474,0-1.049.04-1.717a9.091,9.091,0,0,1,2.563-1.854,6.278,6.278,0,0,1,2.706-.618,3.966,3.966,0,0,1,2.863,1.036q1.072,1.022,1.076,3.732l-.043,1.671v1.093c0,2.556.043,4.16.083,4.8.027.294.04.491.04.588a1.964,1.964,0,0,1-.247.839,2.3,2.3,0,0,1-.558.334,3.441,3.441,0,0,1-.825.127,4.881,4.881,0,0,0-1.57.334.668.668,0,0,0-.144.334l.124.441c.839.04,1.757.047,2.746.02l2.673-.063,2.726.043h.394a1.551,1.551,0,0,0,.124-.525v-.167a4.952,4.952,0,0,0-2.315-.668,1.23,1.23,0,0,1-.538-.545,8.45,8.45,0,0,1-.124-1.864c0-.618,0-1.163.033-1.637s.03-.755.03-.839V29.073a21.688,21.688,0,0,0-.361-4.961,4.19,4.19,0,0,0-1.58-2.168,4.7,4.7,0,0,0-2.913-.925,5.637,5.637,0,0,0-1.447.17,12.028,12.028,0,0,0-2.315.832,13.364,13.364,0,0,0-2.539,1.544q-.332.25-.578.421l-.02-.381V22.218c0-.281-.02-.748-.063-1.407l-.7-.02a7.514,7.514,0,0,1-1.985,2.559,6.087,6.087,0,0,1-2.312,1.093v.765a3.62,3.62,0,0,1,2.065.815,2.776,2.776,0,0,1,.334,1.671l.043,6.408c0,.431,0,.788-.023,1.066l-.04.752a1.731,1.731,0,0,1-.257,1.149,3.5,3.5,0,0,1-1.56.438,10.242,10.242,0,0,0-1.2.251,2.085,2.085,0,0,0-.06.418M96.6,38.448c.371,0,.879,0,1.527-.043,1.076-.04,2.065-.063,2.977-.063.561,0,1.26,0,2.085.023a.835.835,0,0,0-.207-.588,2.338,2.338,0,0,0-1.1-.314,1.366,1.366,0,0,1-1.072-.5,7.7,7.7,0,0,1-.414-3.217c0-1.794.03-2.943.084-3.445h.785a2.262,2.262,0,0,1,1.229.284,14.675,14.675,0,0,1,1.968,2q2.4,2.7,3.007,3.5a2.461,2.461,0,0,1,.6,1.153.668.668,0,0,1-.351.231,18.3,18.3,0,0,1-2.365.271.615.615,0,0,0-.227.231v.147a.885.885,0,0,0,.06.294,1.246,1.246,0,0,0,.434.084,4.511,4.511,0,0,0,.454-.04l5.743-.17h.357q.638,0,2.1.127l.02-.21a1.4,1.4,0,0,0-.08-.4l-.932-.187a4.834,4.834,0,0,1-1.714-.588q-.265-.21-1.881-2.031-.431-.5-.785-.922-1.072-1.3-3.3-3.675c-.424-.461-.722-.788-.889-1a2.362,2.362,0,0,0-.334-.378,2.04,2.04,0,0,1-.271-.354l.745-.668q.742-.631,1.754-1.554a16.448,16.448,0,0,1,3.284-2.406,6.047,6.047,0,0,1,1.948-.568l.972-.19a.949.949,0,0,0,.1-.374v-.274c-1.032-.04-2-.063-2.913-.063q-2.416,0-5.68.127a1.337,1.337,0,0,0-.1.418l.04.21a5.654,5.654,0,0,1,.621.147c.18.043.334.077.494.1a4.344,4.344,0,0,1,1.383.461,1.076,1.076,0,0,1,.271.588q0,.378-.825,1.226a39.625,39.625,0,0,1-4.053,3.194,2.449,2.449,0,0,1-1.427.521l-.227-.02c0-.334-.02-.621-.02-.819v-1.59l.06-5.152-.027-4.16.02-2.489-.06-1.671.02-.9v-1.8c0-.07,0-.264.02-.585h-.641q-1.939,1.088-2.416,1.3a11.767,11.767,0,0,1-2.085.628c0,.157-.023.274-.023.357v.251a5.323,5.323,0,0,1,2.262.6,2.247,2.247,0,0,1,.334,1.477l-.033,3.171L97.99,21.8a12.719,12.719,0,0,1-.043,1.36q-.04,1.213-.04,1.4l.04,1.463-.04,8.266a8.931,8.931,0,0,1-.227,2.857c-.15.231-.528.368-1.126.408a9.008,9.008,0,0,0-1.042.1.788.788,0,0,0-.311.154l.04.608c.635,0,1.089.023,1.366.023" transform="translate(-67.856 -10.21)" fill="#00264c"/>
    <path id="Path_5" data-name="Path 5" d="M35.622,48.321a9.117,9.117,0,0,1,1.8-2.549,1.48,1.48,0,0,1,.869-.434.7.7,0,0,1,.528.267.979.979,0,0,1,.237.668,3.4,3.4,0,0,1-.224,1.206,4.22,4.22,0,0,1-.668,1.126,3.706,3.706,0,0,1-.762.765,7.287,7.287,0,0,1-1.36.775,4.046,4.046,0,0,1-1.39.334,11.743,11.743,0,0,1,.966-2.158m1,2.372a8.985,8.985,0,0,0,1.042-.361l1.153-.762a3.318,3.318,0,0,0,.852-1.109,3.254,3.254,0,0,0,.4-1.53,2.118,2.118,0,0,0-.515-1.453,1.56,1.56,0,0,0-1.193-.578,2.466,2.466,0,0,0-1.022.217,3.969,3.969,0,0,0-.979.641q-.124.11-1.166,1.24l-1.072,1.577a15.791,15.791,0,0,0-.929,1.858,9.021,9.021,0,0,0-.464,1.577,8,8,0,0,0-.2,1.62,3.949,3.949,0,0,0,.668,2.449,1.523,1.523,0,0,0,1.25.668,3.134,3.134,0,0,0,2.125-.942,6.636,6.636,0,0,0,2.058-3.087,3.221,3.221,0,0,0-.378-.027h-.194a5.523,5.523,0,0,1-.668,1.336,6.7,6.7,0,0,1-.772.952,3.705,3.705,0,0,1-.882.628,1.1,1.1,0,0,1-.541.127.936.936,0,0,1-.792-.391,2.436,2.436,0,0,1-.444-1.53,7.614,7.614,0,0,1,.458-2.583q1.336-.271,2.182-.531M25.933,38.409a.588.588,0,0,1,.334.137.391.391,0,0,1,.084.264,3.278,3.278,0,0,1-.224.852L25.569,41.3,21.71,52.671c-.047.124-.1.247-.15.368l-.972,2.519a2.372,2.372,0,0,0-.217.775.421.421,0,0,0,.127.334.668.668,0,0,0,.424.09.708.708,0,0,0,.431-.12,1.336,1.336,0,0,0,.334-.551q.334-.862,1.29-2.977a21.455,21.455,0,0,1,1.36-2.7,38.872,38.872,0,0,1,2.776-3.592,6.278,6.278,0,0,1,1.634-1.31,1.022,1.022,0,0,1,.448-.11.688.688,0,0,1,.571.264,1.774,1.774,0,0,1,.21,1.029,14.171,14.171,0,0,1-.9,4.073,18.77,18.77,0,0,1-2.025,4.6c-.3.4-.545.6-.718.6a.631.631,0,0,1-.4-.214,2.673,2.673,0,0,0-.515-.638.735.735,0,0,0-.441-.12.889.889,0,0,0-.585.187.541.541,0,0,0-.221.4,1.336,1.336,0,0,0,.424.889,1.089,1.089,0,0,0,.819.294,3.08,3.08,0,0,0,1.393-.394,6.468,6.468,0,0,0,1.851-1.761,12.489,12.489,0,0,0,1.871-3.538,11.433,11.433,0,0,0,.792-3.8,2.847,2.847,0,0,0-.511-1.861,1.544,1.544,0,0,0-1.2-.618,2.93,2.93,0,0,0-1.787.7A18.765,18.765,0,0,0,24.5,49.394c-.237.347-.428.6-.571.785.4-1.3.829-2.516,1.29-3.628a39.465,39.465,0,0,0,1.313-3.759c.227-.752.4-1.3.531-1.671l.805-2.339.371-.945.067-.267h-.438c-.334,0-1.276.087-2.85.267l-.057.294a5.075,5.075,0,0,0,.976.3m-9.281,9.355L14.61,52.748l-.585,1.336a7.048,7.048,0,0,0-.668,1.9.548.548,0,0,0,.16.428.725.725,0,0,0,.5.15,1.671,1.671,0,0,0,.645-.14,8.709,8.709,0,0,0,1.032-.668,10.591,10.591,0,0,0,1.41-1.126,28.73,28.73,0,0,0,1.924-2.245,1.958,1.958,0,0,0-.408-.294,16.524,16.524,0,0,1-2.279,2.462,1.574,1.574,0,0,1-.929.481l-.174-.023a.334.334,0,0,1-.084-.194q.915-2.232,1.293-3.007l2.262-5.5a3.006,3.006,0,0,1,.809-.144h.561c.595,0,1.076-.02,1.44-.057a1.544,1.544,0,0,0,.167-.758l-1.336.027H19.6a4.724,4.724,0,0,1-.468-.07,5.806,5.806,0,0,1,.234-.668A22.612,22.612,0,0,0,20.589,41.5v-.227a3.038,3.038,0,0,0-.638-.067,4.979,4.979,0,0,0-.708.04,6.776,6.776,0,0,0-.3.745c-.291.839-.571,1.56-.845,2.172-.124.271-.281.635-.461,1.082-.254.03-1.052.063-2.4.1a2,2,0,0,0-.257.715h.18l.9-.03H17.3q-.247.738-.638,1.707" transform="translate(-13.356 -28.429)" fill="#00264c"/>
  </g>
</svg>
