<svg xmlns="http://www.w3.org/2000/svg" width="48.75" height="48.75" viewBox="0 0 48.75 48.75">
  <g id="trainer" transform="translate(-1 -1)">
    <g id="Group_692" data-name="Group 692" transform="translate(8.049 4.145)">
      <path id="Path_1520" data-name="Path 1520" d="M11.565,24a7.909,7.909,0,0,0-.991.069l-.609,7.305,2.386,2.386,2.386-2.386L14.123,24Z" transform="translate(-9.965 -9.06)" fill="#f75a5e"/>
      <path id="Path_1521" data-name="Path 1521" d="M54.931,27.718H53.359A2.362,2.362,0,0,1,51,25.359V23h3.931a2.359,2.359,0,1,1,0,4.718Z" transform="translate(-18.735 -8.847)" fill="#f75a5e"/>
      <path id="Path_1522" data-name="Path 1522" d="M25.29,9.718H21.359a2.359,2.359,0,0,1,0-4.718h1.573A2.362,2.362,0,0,1,25.29,7.359Z" transform="translate(-11.896 -5)" fill="#f75a5e"/>
      <path id="Path_1523" data-name="Path 1523" d="M53,6h4.718v9.435H53Z" transform="translate(-19.162 -5.214)" fill="#f75a5e"/>
    </g>
    <path id="Path_1524" data-name="Path 1524" d="M12.008,1V9.1a5.5,5.5,0,0,0-4.957,9.6A8.663,8.663,0,0,0,1,26.948v5.5A3.148,3.148,0,0,0,4.145,35.6h.786v11a3.132,3.132,0,0,0,5.5,2.059,3.132,3.132,0,0,0,5.5-2.059V27.156a3.951,3.951,0,0,1,.127-.995H49.75V1ZM6.5,14.367A3.931,3.931,0,1,1,10.435,18.3,3.931,3.931,0,0,1,6.5,14.367Zm7.863,12.789V46.6a1.573,1.573,0,1,1-3.145,0V32.452H9.649V46.6a1.573,1.573,0,1,1-3.145,0V25.375H4.931v8.649H4.145a1.574,1.574,0,0,1-1.573-1.573v-5.5a7.085,7.085,0,0,1,7.077-7.077H14.6a5.5,5.5,0,0,0,2.886-.817l8.64-5.318a1.052,1.052,0,0,1,1.6.9v.307a1.051,1.051,0,0,1-.48.884l-10.365,6.7a5.483,5.483,0,0,0-2.514,4.621Zm8.649-13.575a7.873,7.873,0,0,1,7.077-7.823v8.148l5.759,5.759A7.849,7.849,0,0,1,25.2,19.021l2.9-1.878a2.616,2.616,0,0,0,1.2-2.2v-.307a2.625,2.625,0,0,0-4-2.235l-2.28,1.4c0-.073-.009-.146-.009-.219Zm13.947,4.972-4.186-4.186H38.7a7.823,7.823,0,0,1-1.737,4.186Zm-5.3-5.759V5.758A7.876,7.876,0,0,1,38.7,12.794Zm16.518,11.8H16.9a3.942,3.942,0,0,1,.836-.734l6.139-3.972a9.58,9.58,0,1,0-2.352-5.154l-4.857,2.989a3.921,3.921,0,0,1-2.06.583H14.28a5.49,5.49,0,0,0-.7-8.442V2.573h34.6Z" fill="#336799"/>
    <path id="Path_1525" data-name="Path 1525" d="M48.5,45.029a5.5,5.5,0,1,0-6.251,0A8.687,8.687,0,0,0,37.512,49.5a8.684,8.684,0,0,0-4.737-4.473,5.5,5.5,0,1,0-6.251,0A8.656,8.656,0,0,0,21,53.085v3.931H54.024V53.085A8.656,8.656,0,0,0,48.5,45.029ZM41.444,40.5a3.931,3.931,0,1,1,3.931,3.931A3.931,3.931,0,0,1,41.444,40.5Zm-15.726,0a3.931,3.931,0,1,1,3.931,3.931A3.931,3.931,0,0,1,25.718,40.5ZM36.726,55.44H34.367V49.15H32.794v6.29H26.5V49.15H24.931v6.29H22.573V53.085a7.077,7.077,0,1,1,14.154,0Zm15.726,0H50.093V49.15H48.52v6.29H42.23V49.15H40.657v6.29H38.3V53.085a7.077,7.077,0,1,1,14.154,0Z" transform="translate(-4.274 -7.266)" fill="#336799"/>
    <path id="Path_1526" data-name="Path 1526" d="M53,5h4.718V6.573H53Z" transform="translate(-11.113 -0.855)" fill="#336799"/>
    <path id="Path_1527" data-name="Path 1527" d="M53,9h4.718v1.573H53Z" transform="translate(-11.113 -1.71)" fill="#336799"/>
    <path id="Path_1528" data-name="Path 1528" d="M53,13h4.718v1.573H53Z" transform="translate(-11.113 -2.565)" fill="#336799"/>
    <path id="Path_1529" data-name="Path 1529" d="M53,17h4.718v1.573H53Z" transform="translate(-11.113 -3.419)" fill="#336799"/>
  </g>
</svg>
