<svg xmlns="http://www.w3.org/2000/svg" width="38.14" height="43.197" viewBox="0 0 38.14 43.197">
  <g id="versatality" transform="translate(-29.999)">
    <g id="Group_697" data-name="Group 697" transform="translate(37.677 10.208)">
      <g id="Group_696" data-name="Group 696">
        <path id="Path_1546" data-name="Path 1546" d="M143.236,130.091a9.559,9.559,0,0,0-.879-.524c-.146-.077-.287-.146-.424-.205l-.655-1.582c.055-.139.106-.287.155-.445a9.572,9.572,0,0,0,.252-.992,1.265,1.265,0,0,0-.351-1.119l-1.78-1.78a1.265,1.265,0,0,0-1.119-.351,9.572,9.572,0,0,0-.992.252c-.158.049-.306.1-.445.155l-1.582-.655c-.059-.137-.128-.278-.205-.424a9.519,9.519,0,0,0-.524-.879,1.266,1.266,0,0,0-1.039-.543h-2.517a1.266,1.266,0,0,0-1.039.543,9.559,9.559,0,0,0-.524.879c-.077.146-.146.287-.205.424l-1.582.655c-.139-.055-.287-.106-.445-.155a9.569,9.569,0,0,0-.992-.252,1.266,1.266,0,0,0-1.119.351l-1.78,1.78a1.265,1.265,0,0,0-.351,1.119,9.565,9.565,0,0,0,.252.992c.049.158.1.306.155.445l-.655,1.582c-.137.059-.278.128-.424.205a9.515,9.515,0,0,0-.879.524A1.266,1.266,0,0,0,121,131.13v2.517a1.266,1.266,0,0,0,.543,1.039,9.556,9.556,0,0,0,.879.524c.146.077.287.146.424.205L123.5,137c-.055.139-.106.287-.155.445a9.567,9.567,0,0,0-.252.992,1.265,1.265,0,0,0,.351,1.119l1.78,1.78a1.266,1.266,0,0,0,1.119.351,9.568,9.568,0,0,0,.992-.252c.158-.049.306-.1.445-.155l1.582.655c.059.137.128.278.205.424a9.521,9.521,0,0,0,.524.879,1.265,1.265,0,0,0,1.039.543h2.517a1.265,1.265,0,0,0,1.039-.543,9.555,9.555,0,0,0,.524-.879c.077-.146.146-.287.205-.424L137,141.28c.139.055.287.106.445.155a9.567,9.567,0,0,0,.992.252,1.265,1.265,0,0,0,1.119-.351l1.78-1.78a1.265,1.265,0,0,0,.351-1.119,9.568,9.568,0,0,0-.252-.992c-.049-.158-.1-.306-.155-.445l.655-1.582c.137-.059.278-.128.424-.205a9.521,9.521,0,0,0,.879-.524,1.266,1.266,0,0,0,.543-1.039v-2.52a1.266,1.266,0,0,0-.542-1.039Zm-1.988,2.841c-.128.07-.25.131-.335.166a1.266,1.266,0,0,0-1.082.778L138.7,136.6a1.266,1.266,0,0,0,.215,1.316c.035.085.078.215.12.355l-.769.769c-.14-.042-.269-.084-.355-.12a1.266,1.266,0,0,0-1.316-.215l-2.721,1.127a1.266,1.266,0,0,0-.778,1.082c-.035.085-.1.207-.166.335h-1.088c-.07-.128-.131-.25-.166-.335a1.266,1.266,0,0,0-.778-1.082L128.18,138.7a1.266,1.266,0,0,0-1.316.215c-.085.035-.215.078-.355.12l-.769-.769c.042-.14.084-.269.12-.355a1.266,1.266,0,0,0,.215-1.316l-1.127-2.721a1.266,1.266,0,0,0-1.082-.778c-.085-.035-.207-.1-.335-.166v-1.088c.128-.07.25-.131.335-.166a1.266,1.266,0,0,0,1.082-.778l1.127-2.721a1.266,1.266,0,0,0-.215-1.316c-.035-.085-.078-.215-.12-.355l.769-.769c.14.042.269.084.355.12a1.266,1.266,0,0,0,1.316.215l2.721-1.127a1.266,1.266,0,0,0,.778-1.082c.035-.085.1-.207.166-.335h1.088c.07.128.131.25.166.335a1.266,1.266,0,0,0,.778,1.082l2.721,1.127a1.266,1.266,0,0,0,1.316-.215c.085-.035.215-.078.355-.12l.769.769c-.042.14-.084.269-.12.355a1.266,1.266,0,0,0-.215,1.316l1.127,2.721a1.266,1.266,0,0,0,1.082.778c.085.035.207.1.335.166Z" transform="translate(-121 -120.999)" fill="#42139b"/>
      </g>
    </g>
    <g id="Group_699" data-name="Group 699" transform="translate(30)">
      <g id="Group_698" data-name="Group 698">
        <path id="Path_1547" data-name="Path 1547" d="M49.067,0a3.8,3.8,0,0,0-3.686,2.888A19.071,19.071,0,0,0,30,21.6a1.266,1.266,0,1,0,2.531,0,16.543,16.543,0,0,1,13.1-16.179A3.8,3.8,0,1,0,49.067,0Zm0,5.062A1.266,1.266,0,1,1,50.332,3.8,1.266,1.266,0,0,1,49.067,5.062Z" transform="translate(-30)" fill="#00264c"/>
      </g>
    </g>
    <g id="Group_701" data-name="Group 701" transform="translate(44.005 16.536)">
      <g id="Group_700" data-name="Group 700">
        <path id="Path_1548" data-name="Path 1548" d="M201.062,196a5.062,5.062,0,1,0,5.062,5.062A5.062,5.062,0,0,0,201.062,196Zm0,7.593a2.531,2.531,0,1,1,2.531-2.531,2.531,2.531,0,0,1-2.531,2.531Z" transform="translate(-196 -196)" fill="#4003b2"/>
      </g>
    </g>
    <g id="Group_703" data-name="Group 703" transform="translate(45.27 20.332)">
      <g id="Group_702" data-name="Group 702">
        <path id="Path_1549" data-name="Path 1549" d="M232.6,241a1.266,1.266,0,0,0-1.265,1.266,16.542,16.542,0,0,1-13.1,16.179,3.8,3.8,0,1,0,.252,2.53,19.071,19.071,0,0,0,15.381-18.709A1.266,1.266,0,0,0,232.6,241Zm-17.8,20.332a1.266,1.266,0,1,1,1.266-1.266A1.266,1.266,0,0,1,214.8,261.332Z" transform="translate(-211 -241)" fill="#00264c"/>
      </g>
    </g>
  </g>
</svg>
